STARTFONT 2.3
FONT -FontForge-Courgette-Book-R-Normal--10-100-72-72-P-52-ISO10646-1
SIZE 10 72 72  4
FONTBOUNDINGBOX 14 13 -2 -3
COMMENT "Generated by fontforge, http://fontforge.sourceforge.net"
COMMENT "Copyright (c) 2012, Sorkin Type Co (www.sorkintype.com) with Reserved Font Name "Courgette"."
STARTPROPERTIES 41
FOUNDRY "FontForge"
FAMILY_NAME "Courgette"
WEIGHT_NAME "Book"
SLANT "R"
SETWIDTH_NAME "Normal"
ADD_STYLE_NAME ""
PIXEL_SIZE 10
POINT_SIZE 100
RESOLUTION_X 72
RESOLUTION_Y 72
SPACING "P"
AVERAGE_WIDTH 52
CHARSET_REGISTRY "ISO10646"
CHARSET_ENCODING "1"
FONTNAME_REGISTRY ""
CHARSET_COLLECTIONS "ISO8859-2 ISO8859-9 ISO8859-4 ISO10646-1"
BITS_PER_PIXEL 4
FONT_NAME "Courgette-Regular"
FACE_NAME "Courgette Regular"
COPYRIGHT "Copyright (c) 2012, Sorkin Type Co (www.sorkintype.com) with Reserved Font Name "Courgette"."
FONT_VERSION "1.002"
FONT_ASCENT 8
FONT_DESCENT 2
UNDERLINE_POSITION -1
UNDERLINE_THICKNESS 1
X_HEIGHT 4
CAP_HEIGHT 7
DEFAULT_CHAR 1
RAW_ASCENT 799
RAW_DESCENT 200
NORM_SPACE 3
RELATIVE_WEIGHT 40
RELATIVE_SETWIDTH 50
SUPERSCRIPT_X 0
SUPERSCRIPT_Y 4
SUPERSCRIPT_SIZE 6
SUBSCRIPT_X 0
SUBSCRIPT_Y 1
SUBSCRIPT_SIZE 6
AVG_LOWERCASE_WIDTH 51
AVG_UPPERCASE_WIDTH 58
ENDPROPERTIES
CHARS 407
STARTCHAR .null.dup1
ENCODING 0
SWIDTH 0 0
DWIDTH 0 0
BBX 1 1 0 0
BITMAP
00
ENDCHAR
STARTCHAR uni0001
ENCODING 1
SWIDTH 0 0
DWIDTH 0 0
BBX 1 1 0 0
BITMAP
00
ENDCHAR
STARTCHAR uni0002
ENCODING 2
SWIDTH 0 0
DWIDTH 0 0
BBX 1 1 0 0
BITMAP
00
ENDCHAR
STARTCHAR uni0003
ENCODING 3
SWIDTH 0 0
DWIDTH 0 0
BBX 1 1 0 0
BITMAP
00
ENDCHAR
STARTCHAR uni0004
ENCODING 4
SWIDTH 0 0
DWIDTH 0 0
BBX 1 1 0 0
BITMAP
00
ENDCHAR
STARTCHAR uni0005
ENCODING 5
SWIDTH 0 0
DWIDTH 0 0
BBX 1 1 0 0
BITMAP
00
ENDCHAR
STARTCHAR uni0006
ENCODING 6
SWIDTH 0 0
DWIDTH 0 0
BBX 1 1 0 0
BITMAP
00
ENDCHAR
STARTCHAR uni0007
ENCODING 7
SWIDTH 0 0
DWIDTH 0 0
BBX 1 1 0 0
BITMAP
00
ENDCHAR
STARTCHAR uni0008
ENCODING 8
SWIDTH 0 0
DWIDTH 0 0
BBX 1 1 0 0
BITMAP
00
ENDCHAR
STARTCHAR uni0009
ENCODING 9
SWIDTH 0 0
DWIDTH 0 0
BBX 1 1 0 0
BITMAP
00
ENDCHAR
STARTCHAR nonmarkingreturn
ENCODING 13
SWIDTH 0 0
DWIDTH 0 0
BBX 1 1 0 0
BITMAP
00
ENDCHAR
STARTCHAR uni0015
ENCODING 21
SWIDTH 0 0
DWIDTH 0 0
BBX 1 1 0 0
BITMAP
00
ENDCHAR
STARTCHAR uni0016
ENCODING 22
SWIDTH 0 0
DWIDTH 0 0
BBX 1 1 0 0
BITMAP
00
ENDCHAR
STARTCHAR uni0017
ENCODING 23
SWIDTH 0 0
DWIDTH 0 0
BBX 1 1 0 0
BITMAP
00
ENDCHAR
STARTCHAR uni0018
ENCODING 24
SWIDTH 0 0
DWIDTH 0 0
BBX 1 1 0 0
BITMAP
00
ENDCHAR
STARTCHAR uni0019
ENCODING 25
SWIDTH 0 0
DWIDTH 0 0
BBX 1 1 0 0
BITMAP
00
ENDCHAR
STARTCHAR space
ENCODING 32
SWIDTH 307 0
DWIDTH 3 0
BBX 1 1 0 0
BITMAP
00
ENDCHAR
STARTCHAR exclam
ENCODING 33
SWIDTH 417 0
DWIDTH 4 0
BBX 5 8 0 0
BITMAP
000C60
007D00
00D500
02D000
057000
031000
2E4000
061000
ENDCHAR
STARTCHAR quotedbl
ENCODING 34
SWIDTH 437 0
DWIDTH 4 0
BBX 5 3 1 6
BITMAP
171710
796A00
817200
ENDCHAR
STARTCHAR numbersign
ENCODING 35
SWIDTH 725 0
DWIDTH 7 0
BBX 7 8 0 0
BITMAP
00039480
00085950
000C1D00
09EEEEC0
00758500
4DEDED40
01A29000
06463000
ENDCHAR
STARTCHAR dollar
ENCODING 36
SWIDTH 545 0
DWIDTH 5 0
BBX 6 11 0 -2
BITMAP
000058
004BC5
02D12B
07A08B
07C1B3
02F500
026D00
590D00
3DA500
0B0000
040000
ENDCHAR
STARTCHAR percent
ENCODING 37
SWIDTH 876 0
DWIDTH 9 0
BBX 8 8 0 0
BITMAP
05AB0067
1E1D23C1
3B4C1C20
0992B500
00088397
004B1D1E
02C15A3C
0A302BA3
ENDCHAR
STARTCHAR ampersand
ENCODING 38
SWIDTH 563 0
DWIDTH 6 0
BBX 6 8 0 0
BITMAP
008CA4
08B13A
0E33E4
0B8420
0BA301
6B1DD6
970A30
3C9600
ENDCHAR
STARTCHAR quotesingle
ENCODING 39
SWIDTH 231 0
DWIDTH 2 0
BBX 2 3 1 6
BITMAP
17
79
81
ENDCHAR
STARTCHAR parenleft
ENCODING 40
SWIDTH 478 0
DWIDTH 5 0
BBX 5 12 1 -2
BITMAP
000050
001B30
00B300
088000
1E1000
790000
B50000
D30000
D30000
B40000
690000
0B3000
ENDCHAR
STARTCHAR parenright
ENCODING 41
SWIDTH 478 0
DWIDTH 5 0
BBX 5 12 -1 -2
BITMAP
002400
000C30
0006A0
0003D0
0002E0
0003D0
000690
000B40
003C00
00C300
096000
850000
ENDCHAR
STARTCHAR asterisk
ENCODING 42
SWIDTH 518 0
DWIDTH 5 0
BBX 4 4 1 4
BITMAP
11D1
5AB9
1CB1
5182
ENDCHAR
STARTCHAR plus
ENCODING 43
SWIDTH 617 0
DWIDTH 6 0
BBX 6 5 0 1
BITMAP
002600
003800
2ABDA5
003800
003600
ENDCHAR
STARTCHAR comma
ENCODING 44
SWIDTH 312 0
DWIDTH 3 0
BBX 2 3 0 -1
BITMAP
6B
5B
92
ENDCHAR
STARTCHAR hyphen
ENCODING 45
SWIDTH 452 0
DWIDTH 5 0
BBX 4 1 0 3
BITMAP
1CD9
ENDCHAR
STARTCHAR period
ENCODING 46
SWIDTH 270 0
DWIDTH 3 0
BBX 2 2 0 -1
BITMAP
AA
44
ENDCHAR
STARTCHAR slash
ENCODING 47
SWIDTH 405 0
DWIDTH 4 0
BBX 7 11 -1 -2
BITMAP
00000150
00000860
00002C00
0000A400
0004A000
000C2000
00680000
01C10000
08600000
2C000000
94000000
ENDCHAR
STARTCHAR zero
ENCODING 48
SWIDTH 621 0
DWIDTH 6 0
BBX 7 8 0 0
BITMAP
0019AB00
00B70B30
06C00D30
0C501F10
2E007B00
4B00D400
4A09A000
1BA80000
ENDCHAR
STARTCHAR one
ENCODING 49
SWIDTH 405 0
DWIDTH 4 0
BBX 4 8 0 0
BITMAP
006D
08CE
005A
00A5
01D0
0680
0B10
3600
ENDCHAR
STARTCHAR two
ENCODING 50
SWIDTH 524 0
DWIDTH 5 0
BBX 6 8 0 0
BITMAP
009AA0
0790A4
0991D3
0129B0
008C10
07B100
5A0120
B9CE40
ENDCHAR
STARTCHAR three
ENCODING 51
SWIDTH 537 0
DWIDTH 5 0
BBX 6 8 0 0
BITMAP
008BB2
06A087
09A0B5
0128C0
00BE10
020C40
791E20
4BB500
ENDCHAR
STARTCHAR four
ENCODING 52
SWIDTH 529 0
DWIDTH 5 0
BBX 6 8 0 0
BITMAP
00C200
01F200
06C070
0C62F0
4C07A0
3BAEB1
004A00
009100
ENDCHAR
STARTCHAR five
ENCODING 53
SWIDTH 540 0
DWIDTH 5 0
BBX 6 8 0 0
BITMAP
008DBD
00D264
04B000
0ADD70
0614D0
1206B0
861D40
5BA500
ENDCHAR
STARTCHAR six
ENCODING 54
SWIDTH 554 0
DWIDTH 6 0
BBX 6 8 0 0
BITMAP
002AA7
01D46A
089052
0E9A60
3F61F0
5E02E0
3C0890
0A9910
ENDCHAR
STARTCHAR seven
ENCODING 55
SWIDTH 473 0
DWIDTH 5 0
BBX 5 8 1 0
BITMAP
8EBC50
004B00
01D200
0A6000
4C0000
A60000
D30000
100000
ENDCHAR
STARTCHAR eight
ENCODING 56
SWIDTH 524 0
DWIDTH 5 0
BBX 6 8 0 0
BITMAP
008DC1
03A0B7
0690A6
04E5B0
02EC00
2C4E00
780B10
2C8600
ENDCHAR
STARTCHAR nine
ENCODING 57
SWIDTH 554 0
DWIDTH 6 0
BBX 6 8 0 0
BITMAP
007BC2
06B087
0C40B6
0D33F4
06B8E1
000690
691C20
4B9300
ENDCHAR
STARTCHAR colon
ENCODING 58
SWIDTH 312 0
DWIDTH 3 0
BBX 3 5 0 -1
BITMAP
0C80
0520
0000
8B00
3400
ENDCHAR
STARTCHAR semicolon
ENCODING 59
SWIDTH 312 0
DWIDTH 3 0
BBX 3 6 0 -1
BITMAP
0B90
0530
0000
6B00
5B00
9200
ENDCHAR
STARTCHAR less
ENCODING 60
SWIDTH 637 0
DWIDTH 6 0
BBX 6 6 0 0
BITMAP
000002
0004B5
03A810
2E7000
019A20
0002A6
ENDCHAR
STARTCHAR equal
ENCODING 61
SWIDTH 617 0
DWIDTH 6 0
BBX 6 3 0 2
BITMAP
1ABBB7
000000
2BBBB6
ENDCHAR
STARTCHAR greater
ENCODING 62
SWIDTH 606 0
DWIDTH 6 0
BBX 6 6 0 0
BITMAP
120000
199200
003B81
0003D6
019A20
2A3000
ENDCHAR
STARTCHAR question
ENCODING 63
SWIDTH 516 0
DWIDTH 5 0
BBX 6 8 0 0
BITMAP
006AB1
00E185
0083E2
004E60
01E500
056000
071000
1E3000
ENDCHAR
STARTCHAR at
ENCODING 64
SWIDTH 905 0
DWIDTH 9 0
BBX 9 8 0 -1
BITMAP
0006ABB700
01B5001980
0B3298A1C0
4A1D2881B0
775B2E1940
692A689400
1D40010000
029A860000
ENDCHAR
STARTCHAR A
ENCODING 65
SWIDTH 615 0
DWIDTH 6 0
BBX 8 8 -1 0
BITMAP
000006D6
000077C3
0004A3D0
000C1880
01ADCFD1
01C02E00
09605B00
8A003E70
ENDCHAR
STARTCHAR B
ENCODING 66
SWIDTH 551 0
DWIDTH 6 0
BBX 6 8 0 0
BITMAP
07CBB5
18812E
05E14D
0C73D5
3FBE60
6904C0
860890
3BA910
ENDCHAR
STARTCHAR C
ENCODING 67
SWIDTH 533 0
DWIDTH 5 0
BBX 6 8 0 0
BITMAP
001AB9
01D60D
09908C
1F2092
5C0000
7A0000
6C0130
1BAB30
ENDCHAR
STARTCHAR D
ENCODING 68
SWIDTH 630 0
DWIDTH 6 0
BBX 7 8 0 0
BITMAP
09DBB500
05621D30
02F30A70
08A00B60
0E402E10
4D00B700
791A9000
4CB60000
ENDCHAR
STARTCHAR E
ENCODING 69
SWIDTH 509 0
DWIDTH 5 0
BBX 6 8 0 0
BITMAP
005CA7
05E23C
0B62E5
0B4010
07F800
4E3000
890540
3CA910
ENDCHAR
STARTCHAR F
ENCODING 70
SWIDTH 518 0
DWIDTH 5 0
BBX 7 8 0 0
BITMAP
1CD82420
6A1EBB00
236B0000
00B70000
06FEB000
07C00000
0C500000
78000000
ENDCHAR
STARTCHAR G
ENCODING 71
SWIDTH 598 0
DWIDTH 6 0
BBX 7 8 0 0
BITMAP
001AB900
01C60C10
09A05E00
1F30D600
5D001100
7A08FB00
6B049000
1BA91000
ENDCHAR
STARTCHAR H
ENCODING 72
SWIDTH 668 0
DWIDTH 7 0
BBX 8 8 -1 0
BITMAP
00CD300D
000D403E
001F206A
006D00A6
00D712B0
01E10860
08800D20
3B000C90
ENDCHAR
STARTCHAR I
ENCODING 73
SWIDTH 327 0
DWIDTH 3 0
BBX 4 8 0 0
BITMAP
0AD4
00A6
00D3
02E0
07A0
0C40
5C00
C200
ENDCHAR
STARTCHAR J
ENCODING 74
SWIDTH 393 0
DWIDTH 4 0
BBX 7 11 -2 -3
BITMAP
0019DD20
005A1F20
00003E00
00007B00
0000C600
0003F100
0009A000
001E3000
00990000
05D10000
6B200000
ENDCHAR
STARTCHAR K
ENCODING 75
SWIDTH 616 0
DWIDTH 6 0
BBX 8 8 -1 0
BITMAP
02DD10B4
001F10C6
003D05C0
007A5B10
00CCA000
03E4E200
0A80AB00
4B102CB0
ENDCHAR
STARTCHAR L
ENCODING 76
SWIDTH 517 0
DWIDTH 5 0
BBX 7 8 -1 0
BITMAP
0001AB40
000A7490
003E1B60
00898B00
00D40000
04D00000
0A534100
2ECAB800
ENDCHAR
STARTCHAR M
ENCODING 77
SWIDTH 931 0
DWIDTH 9 0
BBX 11 8 -1 0
BITMAP
00002C904D40
0001BB62BE10
00094E1A7B00
003A5C499600
00A388A2E200
04A0A992E000
0C20BE24C000
A6009702E900
ENDCHAR
STARTCHAR N
ENCODING 78
SWIDTH 708 0
DWIDTH 7 0
BBX 8 8 0 0
BITMAP
002D30A7
00BE207A
067E2097
0C1E30D1
3B0C5580
77099B10
B404E800
A100B300
ENDCHAR
STARTCHAR O
ENCODING 79
SWIDTH 655 0
DWIDTH 7 0
BBX 7 8 0 0
BITMAP
0019BC20
00B80690
07C006A0
0E400980
3E001E30
5A007B00
4A03D200
0AAA2000
ENDCHAR
STARTCHAR P
ENCODING 80
SWIDTH 553 0
DWIDTH 6 0
BBX 8 8 -1 0
BITMAP
006CBA60
00A710E2
001E21F1
005C1B80
00BDB600
02E10000
08800000
3B000000
ENDCHAR
STARTCHAR Q
ENCODING 81
SWIDTH 655 0
DWIDTH 7 0
BBX 8 10 0 -2
BITMAP
001AAB10
01D50770
09900790
0E200B60
3E003E10
2F10C600
083A8000
05DD2000
0017E500
00004BC1
ENDCHAR
STARTCHAR R
ENCODING 82
SWIDTH 623 0
DWIDTH 6 0
BBX 8 8 -1 0
BITMAP
005CCB60
007820D2
001E31E2
005C1A90
00ADD700
01E4E200
08909900
2C101D90
ENDCHAR
STARTCHAR S
ENCODING 83
SWIDTH 474 0
DWIDTH 5 0
BBX 6 8 0 0
BITMAP
009BB1
079076
0C41C5
0C7490
06E100
11B800
A46800
6CA100
ENDCHAR
STARTCHAR T
ENCODING 84
SWIDTH 471 0
DWIDTH 5 0
BBX 7 8 0 0
BITMAP
1CE92240
4C0DCB10
253F1000
007B0000
00C60000
01E10000
07900000
2B100000
ENDCHAR
STARTCHAR U
ENCODING 85
SWIDTH 624 0
DWIDTH 6 0
BBX 7 8 0 0
BITMAP
01D402C0
00E30A80
05C02F20
0B609C00
2E12F700
790AD300
B574E100
8D50CB00
ENDCHAR
STARTCHAR V
ENCODING 86
SWIDTH 587 0
DWIDTH 6 0
BBX 8 8 0 0
BITMAP
0BE602D1
037A00F2
00E505C0
06C02E30
0B61C500
1E1B5000
2C950000
0D600000
ENDCHAR
STARTCHAR W
ENCODING 87
SWIDTH 941 0
DWIDTH 9 0
BBX 10 8 0 0
BITMAP
1CE500007B
038901505E
01E32D904D
07B1CE107A
0D49BA00B4
2D499604C0
4BB1A52C20
1D305CA200
ENDCHAR
STARTCHAR X
ENCODING 88
SWIDTH 552 0
DWIDTH 6 0
BBX 9 8 -1 0
BITMAP
0009507B10
000D46B000
000D7C1000
000BE20000
000B900000
006CC00000
04B1E30000
4B106D5000
ENDCHAR
STARTCHAR Y
ENCODING 89
SWIDTH 580 0
DWIDTH 6 0
BBX 7 11 0 -3
BITMAP
01E403B0
00E20A80
05C03F20
0B50AC00
2E03F700
880AE200
C578B000
9D5B5000
004C0000
02D20000
3B300000
ENDCHAR
STARTCHAR Z
ENCODING 90
SWIDTH 501 0
DWIDTH 5 0
BBX 7 8 -1 0
BITMAP
008119B0
008FDCA0
00013C10
0002D300
002D4000
01D60000
0A900000
1E9CE700
ENDCHAR
STARTCHAR bracketleft
ENCODING 91
SWIDTH 396 0
DWIDTH 4 0
BBX 6 11 0 -2
BITMAP
000791
000E20
005B00
00A600
01E100
05A000
0B5000
1E1000
6A0000
B50000
A70000
ENDCHAR
STARTCHAR backslash
ENCODING 92
SWIDTH 464 0
DWIDTH 5 0
BBX 4 11 0 -2
BITMAP
3100
5700
1B00
0C00
0940
0570
01B0
00C0
0084
0058
001A
ENDCHAR
STARTCHAR bracketright
ENCODING 93
SWIDTH 394 0
DWIDTH 4 0
BBX 6 11 -1 -2
BITMAP
000297
0000A6
0001E1
0005A0
000A50
001E10
005A00
00A400
01D000
069000
3A3000
ENDCHAR
STARTCHAR asciicircum
ENCODING 94
SWIDTH 540 0
DWIDTH 5 0
BBX 5 4 1 4
BITMAP
04A000
0CD300
673A00
A00920
ENDCHAR
STARTCHAR underscore
ENCODING 95
SWIDTH 530 0
DWIDTH 5 0
BBX 7 1 -2 -2
BITMAP
6CCCCCA0
ENDCHAR
STARTCHAR grave
ENCODING 96
SWIDTH 219 0
DWIDTH 2 0
BBX 2 3 0 5
BITMAP
77
68
04
ENDCHAR
STARTCHAR a
ENCODING 97
SWIDTH 541 0
DWIDTH 5 0
BBX 6 5 0 0
BITMAP
02BAC4
1D24D0
790A70
A74E20
5D7AC0
ENDCHAR
STARTCHAR b
ENCODING 98
SWIDTH 525 0
DWIDTH 5 0
BBX 5 8 0 0
BITMAP
00D000
03D000
078000
0C9C80
2F54D0
6B07B0
951D40
4BB500
ENDCHAR
STARTCHAR c
ENCODING 99
SWIDTH 465 0
DWIDTH 5 0
BBX 5 5 0 0
BITMAP
03BB50
2E3970
8A0510
970300
4DB500
ENDCHAR
STARTCHAR d
ENCODING 100
SWIDTH 557 0
DWIDTH 6 0
BBX 7 8 0 0
BITMAP
00000950
00001E10
00006A00
01AAD400
0C42E000
6B08A000
883E6000
4D97D200
ENDCHAR
STARTCHAR e
ENCODING 101
SWIDTH 471 0
DWIDTH 5 0
BBX 5 5 0 0
BITMAP
02AC40
1D3970
6D9A10
891300
3DB800
ENDCHAR
STARTCHAR f
ENCODING 102
SWIDTH 393 0
DWIDTH 4 0
BBX 7 10 -1 -1
BITMAP
00008910
00078A50
000D2910
002D0000
02BFD200
01C40000
01E10000
05B00000
0B500000
1C000000
ENDCHAR
STARTCHAR g
ENCODING 103
SWIDTH 526 0
DWIDTH 5 0
BBX 6 8 0 -3
BITMAP
02A993
1D23E1
7A09A0
973F50
4D9E10
006800
03C100
282000
ENDCHAR
STARTCHAR h
ENCODING 104
SWIDTH 555 0
DWIDTH 6 0
BBX 6 8 0 0
BITMAP
00A400
00D300
02E000
079AD1
0BA4E1
2F4890
890D30
C20CB0
ENDCHAR
STARTCHAR i
ENCODING 105
SWIDTH 286 0
DWIDTH 3 0
BBX 4 8 0 0
BITMAP
02E2
0060
0000
0B60
0C30
3C00
9600
8D00
ENDCHAR
STARTCHAR j
ENCODING 106
SWIDTH 281 0
DWIDTH 3 0
BBX 5 11 -2 -3
BITMAP
0006C0
000240
000000
000D50
000C40
000E10
004C00
009700
01D100
086000
680000
ENDCHAR
STARTCHAR k
ENCODING 107
SWIDTH 497 0
DWIDTH 5 0
BBX 5 8 0 0
BITMAP
00A400
00D200
02D000
0783D0
0B3A90
2FD400
88E300
C15E60
ENDCHAR
STARTCHAR l
ENCODING 108
SWIDTH 279 0
DWIDTH 3 0
BBX 4 8 0 0
BITMAP
00C2
01E1
04B0
0960
0D10
4A00
9600
8D10
ENDCHAR
STARTCHAR m
ENCODING 109
SWIDTH 814 0
DWIDTH 8 0
BBX 8 5 0 0
BITMAP
0B69D2D9
0CB4C989
2F55E2D2
890C54C0
C21C03E5
ENDCHAR
STARTCHAR n
ENCODING 110
SWIDTH 561 0
DWIDTH 6 0
BBX 6 5 0 0
BITMAP
0B69E2
0CB4E1
2F57A0
890C40
C20BB0
ENDCHAR
STARTCHAR o
ENCODING 111
SWIDTH 514 0
DWIDTH 5 0
BBX 5 5 0 0
BITMAP
03BA50
1E35B0
7A0890
971E30
4BB500
ENDCHAR
STARTCHAR p
ENCODING 112
SWIDTH 550 0
DWIDTH 6 0
BBX 7 8 -1 -3
BITMAP
01E6BB00
00E90F10
02E12E00
06A0A700
0ABB7000
0E000000
5A000000
94000000
ENDCHAR
STARTCHAR q
ENCODING 113
SWIDTH 533 0
DWIDTH 5 0
BBX 6 8 0 -3
BITMAP
02AA83
1D33F2
6A08B0
883E50
4D9D00
004A00
008600
006600
ENDCHAR
STARTCHAR r
ENCODING 114
SWIDTH 407 0
DWIDTH 4 0
BBX 5 5 0 0
BITMAP
0D5C60
0C9420
2F3000
7A0000
B30000
ENDCHAR
STARTCHAR s
ENCODING 115
SWIDTH 423 0
DWIDTH 4 0
BBX 5 5 0 0
BITMAP
07AC10
0F1810
0AA000
51E200
AA9000
ENDCHAR
STARTCHAR t
ENCODING 116
SWIDTH 358 0
DWIDTH 4 0
BBX 5 7 0 0
BITMAP
004200
00E200
0BD910
0B5000
0E1000
3C1100
1DB100
ENDCHAR
STARTCHAR u
ENCODING 117
SWIDTH 553 0
DWIDTH 6 0
BBX 6 5 0 0
BITMAP
0B70A5
0C44E0
3D1D80
978C30
9C3AB0
ENDCHAR
STARTCHAR v
ENCODING 118
SWIDTH 510 0
DWIDTH 5 0
BBX 5 5 0 0
BITMAP
0A74C0
0C52E0
3D0690
972B10
8C9100
ENDCHAR
STARTCHAR w
ENCODING 119
SWIDTH 750 0
DWIDTH 8 0
BBX 8 5 0 0
BITMAP
0C6080D3
0B46B0A4
1D2E50C1
799D2660
8B19C700
ENDCHAR
STARTCHAR x
ENCODING 120
SWIDTH 467 0
DWIDTH 5 0
BBX 6 5 -1 0
BITMAP
00A37A
00DA80
009B00
02CD00
1B1AC1
ENDCHAR
STARTCHAR y
ENCODING 121
SWIDTH 549 0
DWIDTH 6 0
BBX 6 8 0 -3
BITMAP
0A7096
0B53F2
3E1CB0
988C60
8D4D10
007700
04C000
281000
ENDCHAR
STARTCHAR z
ENCODING 122
SWIDTH 430 0
DWIDTH 4 0
BBX 5 5 0 0
BITMAP
09AB70
006D20
07C100
6B2000
CBB700
ENDCHAR
STARTCHAR braceleft
ENCODING 123
SWIDTH 424 0
DWIDTH 4 0
BBX 6 11 0 -2
BITMAP
0002A3
000A60
000E10
003C00
00A600
0B8000
096000
0B5000
2E0000
6A0000
391000
ENDCHAR
STARTCHAR bar
ENCODING 124
SWIDTH 306 0
DWIDTH 3 0
BBX 2 11 1 -2
BITMAP
41
B2
B2
B2
B2
B2
B2
B2
B2
B2
A1
ENDCHAR
STARTCHAR braceright
ENCODING 125
SWIDTH 424 0
DWIDTH 4 0
BBX 6 11 -1 -2
BITMAP
0002A2
0000C4
0001E1
000790
000870
001990
008800
00E100
03C000
088000
491000
ENDCHAR
STARTCHAR asciitilde
ENCODING 126
SWIDTH 624 0
DWIDTH 6 0
BBX 6 2 0 2
BITMAP
08D909
452CD5
ENDCHAR
STARTCHAR nonbreakingspace
ENCODING 160
SWIDTH 293 0
DWIDTH 3 0
BBX 1 1 0 0
BITMAP
00
ENDCHAR
STARTCHAR exclamdown
ENCODING 161
SWIDTH 417 0
DWIDTH 4 0
BBX 4 8 0 -2
BITMAP
00AB
0033
0280
0A40
2E00
7A00
A700
6400
ENDCHAR
STARTCHAR cent
ENCODING 162
SWIDTH 487 0
DWIDTH 5 0
BBX 5 8 0 0
BITMAP
000390
002B40
04C4A0
0D4770
2E0000
2E0510
09C700
072000
ENDCHAR
STARTCHAR sterling
ENCODING 163
SWIDTH 665 0
DWIDTH 7 0
BBX 8 8 -1 0
BITMAP
000009B6
00007A1B
0000E398
0005D2C1
006DD800
000E2000
09BE2010
2BB4BEB0
ENDCHAR
STARTCHAR currency
ENCODING 164
SWIDTH 572 0
DWIDTH 6 0
BBX 6 7 0 0
BITMAP
007002
00C9B6
05C0E1
0C52F1
0D2990
1B9B30
320240
ENDCHAR
STARTCHAR yen
ENCODING 165
SWIDTH 583 0
DWIDTH 6 0
BBX 7 8 0 0
BITMAP
3E4005D0
07B02E40
00E0B700
00A6C000
007E4000
06CD5000
09EB4000
00C00000
ENDCHAR
STARTCHAR brokenbar
ENCODING 166
SWIDTH 292 0
DWIDTH 3 0
BBX 1 11 1 -2
BITMAP
70
E0
E0
E0
B0
00
70
E0
E0
E0
B0
ENDCHAR
STARTCHAR section
ENCODING 167
SWIDTH 583 0
DWIDTH 6 0
BBX 6 11 0 -2
BITMAP
000895
00790D
00A87D
008D31
089E50
0F17B0
0E53D0
07DA50
31D400
D2A400
7A7000
ENDCHAR
STARTCHAR dieresis
ENCODING 168
SWIDTH 412 0
DWIDTH 4 0
BBX 5 2 0 6
BITMAP
7C4E10
241500
ENDCHAR
STARTCHAR copyright
ENCODING 169
SWIDTH 871 0
DWIDTH 9 0
BBX 9 8 0 0
BITMAP
0019CCA200
01C5895C00
0A49765A30
1C2E2D3850
3A4B050A20
2B4B032B00
0B5897C200
019CCA2000
ENDCHAR
STARTCHAR ordfeminine
ENCODING 170
SWIDTH 564 0
DWIDTH 6 0
BBX 5 5 1 3
BITMAP
049860
3C1E30
B54C00
D3C800
8B5C20
ENDCHAR
STARTCHAR guillemotleft
ENCODING 171
SWIDTH 662 0
DWIDTH 7 0
BBX 7 4 0 1
BITMAP
00662910
1B76B200
1D37A000
02C18600
ENDCHAR
STARTCHAR logicalnot
ENCODING 172
SWIDTH 729 0
DWIDTH 7 0
BBX 7 4 0 0
BITMAP
1BBBBC50
00000750
00000850
00000310
ENDCHAR
STARTCHAR uni00AD
ENCODING 173
SWIDTH 833 0
DWIDTH 8 0
BBX 1 1 0 0
BITMAP
00
ENDCHAR
STARTCHAR registered
ENCODING 174
SWIDTH 742 0
DWIDTH 7 0
BBX 7 7 1 1
BITMAP
04AAA200
3A893B00
A1948910
A1DA1910
A56B2A00
9503A300
18993000
ENDCHAR
STARTCHAR macron
ENCODING 175
SWIDTH 392 0
DWIDTH 4 0
BBX 5 1 0 6
BITMAP
2DDC10
ENDCHAR
STARTCHAR degree
ENCODING 176
SWIDTH 405 0
DWIDTH 4 0
BBX 4 4 1 4
BITMAP
3AB2
B3A4
C3D1
3720
ENDCHAR
STARTCHAR plusminus
ENCODING 177
SWIDTH 617 0
DWIDTH 6 0
BBX 6 7 0 0
BITMAP
002600
003700
2ACDB5
003700
003600
000000
2ABBB5
ENDCHAR
STARTCHAR twosuperior
ENCODING 178
SWIDTH 458 0
DWIDTH 5 0
BBX 5 5 0 3
BITMAP
01AA70
04A5A0
004D30
069200
2CAB00
ENDCHAR
STARTCHAR threesuperior
ENCODING 179
SWIDTH 430 0
DWIDTH 4 0
BBX 5 5 0 3
BITMAP
01AA70
027890
009B00
293D00
188200
ENDCHAR
STARTCHAR acute
ENCODING 180
SWIDTH 322 0
DWIDTH 3 0
BBX 3 3 1 5
BITMAP
0300
2E10
A400
ENDCHAR
STARTCHAR mu
ENCODING 181
SWIDTH 618 0
DWIDTH 6 0
BBX 7 8 -1 -3
BITMAP
002C03B0
00A70C60
02E17E00
07B3CA00
0CE93E50
1D000000
3A000000
38000000
ENDCHAR
STARTCHAR paragraph
ENCODING 182
SWIDTH 739 0
DWIDTH 7 0
BBX 9 9 0 -1
BITMAP
00049CDD40
007FF78800
01FFF2B500
00EFD1E100
002C94A000
000D595000
173E0D1000
A796490000
5A70710000
ENDCHAR
STARTCHAR periodcentered
ENCODING 183
SWIDTH 353 0
DWIDTH 4 0
BBX 2 2 1 2
BITMAP
AA
43
ENDCHAR
STARTCHAR cedilla
ENCODING 184
SWIDTH 301 0
DWIDTH 3 0
BBX 3 3 0 -2
BITMAP
0400
0750
2D20
ENDCHAR
STARTCHAR onesuperior
ENCODING 185
SWIDTH 403 0
DWIDTH 4 0
BBX 3 5 1 3
BITMAP
06D0
6AC0
0A60
2C00
8400
ENDCHAR
STARTCHAR ordmasculine
ENCODING 186
SWIDTH 498 0
DWIDTH 5 0
BBX 4 5 1 3
BITMAP
0596
4B1E
C43D
D1A6
5960
ENDCHAR
STARTCHAR guillemotright
ENCODING 187
SWIDTH 665 0
DWIDTH 7 0
BBX 6 4 0 1
BITMAP
0A53B1
01C37A
04C4A9
481930
ENDCHAR
STARTCHAR onequarter
ENCODING 188
SWIDTH 988 0
DWIDTH 10 0
BBX 8 8 1 0
BITMAP
08A00B10
9DA06800
0A51C420
1D195970
682B0E3C
A1B36A3C
05904AD6
0B100370
ENDCHAR
STARTCHAR onehalf
ENCODING 189
SWIDTH 988 0
DWIDTH 10 0
BBX 9 8 1 0
BITMAP
07A00B1000
7EA0770000
4A51C00000
1D0956AB10
763B0B3C30
60B3009A00
05901A6100
0B109ED600
ENDCHAR
STARTCHAR threequarters
ENCODING 190
SWIDTH 1007 0
DWIDTH 10 0
BBX 10 8 0 0
BITMAP
039B204800
085B41C100
019B086500
02B62C2D00
8596A47862
3874A0D1C1
000C209BC2
0057000910
ENDCHAR
STARTCHAR questiondown
ENCODING 191
SWIDTH 516 0
DWIDTH 5 0
BBX 5 9 0 -2
BITMAP
000100
000C80
000420
002A00
02D600
3E6000
C67500
D0A500
597000
ENDCHAR
STARTCHAR Agrave
ENCODING 192
SWIDTH 615 0
DWIDTH 6 0
BBX 8 10 -1 0
BITMAP
00000330
000005B0
000006D6
000077C3
0004A3D0
000C1880
01ADCFD1
01C02E00
09605B00
8A003E70
ENDCHAR
STARTCHAR Aacute
ENCODING 193
SWIDTH 615 0
DWIDTH 6 0
BBX 8 10 -1 0
BITMAP
0000000A
00000078
000006D6
000077C3
0004A3D0
000C1880
01ADCFD1
01C02E00
09605B00
8A003E70
ENDCHAR
STARTCHAR Acircumflex
ENCODING 194
SWIDTH 615 0
DWIDTH 6 0
BBX 8 10 -1 0
BITMAP
00000065
0000097C
000006D6
000077C3
0004A3D0
000C1880
01ADCFD1
01C02E00
09605B00
8A003E70
ENDCHAR
STARTCHAR Atilde
ENCODING 195
SWIDTH 615 0
DWIDTH 6 0
BBX 9 10 -1 0
BITMAP
000009C160
0000248B10
000006D600
000077C300
0004A3D000
000C188000
01ADCFD100
01C02E0000
09605B0000
8A003E7000
ENDCHAR
STARTCHAR Adieresis
ENCODING 196
SWIDTH 615 0
DWIDTH 6 0
BBX 9 10 -1 0
BITMAP
0000071530
00001D2B50
000006D600
000077C300
0004A3D000
000C188000
01ADCFD100
01C02E0000
09605B0000
8A003E7000
ENDCHAR
STARTCHAR Aring
ENCODING 197
SWIDTH 615 0
DWIDTH 6 0
BBX 8 10 -1 0
BITMAP
00000288
0000095C
000007F7
000077C3
000493D0
000C1880
01ADCFD1
01C02E00
09605B00
8A003E70
ENDCHAR
STARTCHAR AE
ENCODING 198
SWIDTH 878 0
DWIDTH 9 0
BBX 11 8 -1 0
BITMAP
000007DCDA40
000079AB1770
0003C1F25D20
000C31E00100
019EDEFD4000
02D107C10000
0A600D509000
6A0006CC7000
ENDCHAR
STARTCHAR Ccedilla
ENCODING 199
SWIDTH 533 0
DWIDTH 5 0
BBX 7 10 0 -2
BITMAP
001AB900
01C60D10
09A07D00
1F209300
5D000000
7A000000
6C014000
1CBB3000
02900000
0B600000
ENDCHAR
STARTCHAR Egrave
ENCODING 200
SWIDTH 509 0
DWIDTH 5 0
BBX 6 10 0 0
BITMAP
000320
0006A0
005CA7
05E23C
0B62E5
0B4010
07F800
4E3000
890540
3CA910
ENDCHAR
STARTCHAR Eacute
ENCODING 201
SWIDTH 509 0
DWIDTH 5 0
BBX 6 10 0 0
BITMAP
000019
000096
005CA7
05E23C
0B62E5
0B4010
07F800
4E3000
890540
3CA910
ENDCHAR
STARTCHAR Ecircumflex
ENCODING 202
SWIDTH 509 0
DWIDTH 5 0
BBX 6 10 0 0
BITMAP
000074
001A7B
005CA7
05E23C
0B62E5
0B4010
07F800
4E3000
890540
3CA910
ENDCHAR
STARTCHAR Edieresis
ENCODING 203
SWIDTH 509 0
DWIDTH 5 0
BBX 7 10 0 0
BITMAP
00170620
003D1D40
005CA700
05E23C00
0B62E500
0B401000
07F80000
4E300000
89054000
3CA91000
ENDCHAR
STARTCHAR Igrave
ENCODING 204
SWIDTH 327 0
DWIDTH 3 0
BBX 4 10 0 0
BITMAP
0050
00A6
0AD4
00A6
00D3
02E0
07A0
0C40
5C00
C200
ENDCHAR
STARTCHAR Iacute
ENCODING 205
SWIDTH 327 0
DWIDTH 3 0
BBX 5 10 0 0
BITMAP
000460
001B30
0AD400
00A600
00D300
02E000
07A000
0C4000
5C0000
C20000
ENDCHAR
STARTCHAR Icircumflex
ENCODING 206
SWIDTH 327 0
DWIDTH 3 0
BBX 5 10 0 0
BITMAP
001910
04A970
0AD400
00A600
00D300
02E000
07A000
0C4000
5C0000
C20000
ENDCHAR
STARTCHAR Idieresis
ENCODING 207
SWIDTH 327 0
DWIDTH 3 0
BBX 5 10 0 0
BITMAP
035160
0794C0
0AD400
00A600
00D300
02E000
07A000
0C4000
5C0000
C20000
ENDCHAR
STARTCHAR Eth
ENCODING 208
SWIDTH 630 0
DWIDTH 6 0
BBX 7 8 0 0
BITMAP
0ADBB400
05622D20
03E10B50
7EEC0C40
1F203E10
5C00C600
881B8000
5CB50000
ENDCHAR
STARTCHAR Ntilde
ENCODING 209
SWIDTH 708 0
DWIDTH 7 0
BBX 8 10 0 0
BITMAP
00004D57
000073C5
002D30A7
00BE207A
067E2097
0C1E30D1
3B0C5580
77099B10
B404E800
A100B300
ENDCHAR
STARTCHAR Ograve
ENCODING 210
SWIDTH 655 0
DWIDTH 7 0
BBX 7 10 0 0
BITMAP
00004100
00007900
0019BC20
00B80690
07C006A0
0E400980
3E001E30
5A007B00
4A03D200
0AAA2000
ENDCHAR
STARTCHAR Oacute
ENCODING 211
SWIDTH 655 0
DWIDTH 7 0
BBX 7 10 0 0
BITMAP
00000280
00000A50
0019BC20
00B80690
07C006A0
0E400980
3E001E30
5A007B00
4A03D200
0AAA2000
ENDCHAR
STARTCHAR Ocircumflex
ENCODING 212
SWIDTH 655 0
DWIDTH 7 0
BBX 7 10 0 0
BITMAP
00000830
0001A8A0
0019BC20
00B80690
07C006A0
0E400980
3E001E30
5A007B00
4A03D200
0AAA2000
ENDCHAR
STARTCHAR Otilde
ENCODING 213
SWIDTH 655 0
DWIDTH 7 0
BBX 8 10 0 0
BITMAP
0001BA34
00052A90
0019BC20
00B80690
07C006A0
0E400980
3E001E30
5A007B00
4A03D200
0AAA2000
ENDCHAR
STARTCHAR Odieresis
ENCODING 214
SWIDTH 655 0
DWIDTH 7 0
BBX 8 10 0 0
BITMAP
00016061
0004D1D3
0019BC20
00B80690
07C006A0
0E400980
3E001E30
5A007B00
4A03D200
0AAA2000
ENDCHAR
STARTCHAR multiply
ENCODING 215
SWIDTH 573 0
DWIDTH 6 0
BBX 5 4 1 1
BITMAP
921A10
1BB300
1BB100
A32A00
ENDCHAR
STARTCHAR Oslash
ENCODING 216
SWIDTH 655 0
DWIDTH 7 0
BBX 8 10 0 -1
BITMAP
00000061
0006BE90
007C3AE0
02E293F0
099364D0
0E390A80
1F553E20
0EA1C600
0ABB5000
09000000
ENDCHAR
STARTCHAR Ugrave
ENCODING 217
SWIDTH 624 0
DWIDTH 6 0
BBX 7 10 0 0
BITMAP
00014000
0002C200
01D402C0
00E30A80
05C02F20
0B609C00
2E12F700
790AD300
B574E100
8D50CB00
ENDCHAR
STARTCHAR Uacute
ENCODING 218
SWIDTH 624 0
DWIDTH 6 0
BBX 7 10 0 0
BITMAP
00000820
00004A10
01D402C0
00E30A80
05C02F20
0B609C00
2E12F700
790AD300
B574E100
8D50CB00
ENDCHAR
STARTCHAR Ucircumflex
ENCODING 219
SWIDTH 624 0
DWIDTH 6 0
BBX 7 10 0 0
BITMAP
00004800
00078C20
01D402C0
00E30A80
05C02F20
0B609C00
2E12F700
790AD300
B574E100
8D50CB00
ENDCHAR
STARTCHAR Udieresis
ENCODING 220
SWIDTH 624 0
DWIDTH 6 0
BBX 7 10 0 0
BITMAP
00052440
000C5880
01D402C0
00E30A80
05C02F20
0B609C00
2E12F700
790AD300
B574E100
8D50CB00
ENDCHAR
STARTCHAR Yacute
ENCODING 221
SWIDTH 580 0
DWIDTH 6 0
BBX 7 13 0 -3
BITMAP
00000910
00005A00
01E403B0
00E20A80
05C03F20
0B50AC00
2E03F700
880AE200
C578B000
9D5B5000
004C0000
02D20000
3B300000
ENDCHAR
STARTCHAR Thorn
ENCODING 222
SWIDTH 527 0
DWIDTH 5 0
BBX 7 8 -1 0
BITMAP
02CD1000
001F1000
004FA700
00890B50
00D51D30
03F9D600
0A720000
4A000000
ENDCHAR
STARTCHAR germandbls
ENCODING 223
SWIDTH 520 0
DWIDTH 5 0
BBX 7 10 -1 -2
BITMAP
0003A910
001D2950
00791D20
00C4A500
01E4B000
05B1E300
09855B00
0D4CA600
3D000000
33000000
ENDCHAR
STARTCHAR agrave
ENCODING 224
SWIDTH 541 0
DWIDTH 5 0
BBX 6 8 0 0
BITMAP
001D00
001D00
000410
02BAC4
1D24D0
790A70
A74E20
5D7AC0
ENDCHAR
STARTCHAR aacute
ENCODING 225
SWIDTH 541 0
DWIDTH 5 0
BBX 6 8 0 0
BITMAP
0002A0
000970
001400
02BAC4
1D24D0
790A70
A74E20
5D7AC0
ENDCHAR
STARTCHAR acircumflex
ENCODING 226
SWIDTH 541 0
DWIDTH 5 0
BBX 6 8 0 0
BITMAP
000170
003AD1
006142
02BAC4
1D24D0
790A70
A74E20
5D7AC0
ENDCHAR
STARTCHAR atilde
ENCODING 227
SWIDTH 541 0
DWIDTH 5 0
BBX 6 8 0 0
BITMAP
007D27
0065C3
000000
02BAC4
1D24D0
790A70
A74E20
5D7AC0
ENDCHAR
STARTCHAR adieresis
ENCODING 228
SWIDTH 541 0
DWIDTH 5 0
BBX 6 8 0 0
BITMAP
00D599
005133
000000
02BAC4
1D24D0
790A70
A74E20
5D7AC0
ENDCHAR
STARTCHAR aring
ENCODING 229
SWIDTH 541 0
DWIDTH 5 0
BBX 6 8 0 0
BITMAP
0019B1
0076B2
002860
02BAC4
1D24D0
790A70
A74E20
5D7AC0
ENDCHAR
STARTCHAR ae
ENCODING 230
SWIDTH 769 0
DWIDTH 8 0
BBX 8 5 0 0
BITMAP
02BACBC4
1D24E1B7
790ABAB1
A74D9130
5D83CB80
ENDCHAR
STARTCHAR ccedilla
ENCODING 231
SWIDTH 465 0
DWIDTH 5 0
BBX 5 7 0 -2
BITMAP
03BB50
2E2970
890510
A70300
3CB600
074000
2D2000
ENDCHAR
STARTCHAR egrave
ENCODING 232
SWIDTH 471 0
DWIDTH 5 0
BBX 5 8 0 0
BITMAP
007800
006900
000500
02AC40
1D3970
6D9A10
891300
3DB800
ENDCHAR
STARTCHAR eacute
ENCODING 233
SWIDTH 471 0
DWIDTH 5 0
BBX 5 8 0 0
BITMAP
000650
001D30
004200
02AC40
1D3970
6D9A10
891300
3DB800
ENDCHAR
STARTCHAR ecircumflex
ENCODING 234
SWIDTH 471 0
DWIDTH 5 0
BBX 5 8 0 0
BITMAP
000440
007BA0
034060
02AC40
1D3970
6D9A10
891300
3DB800
ENDCHAR
STARTCHAR edieresis
ENCODING 235
SWIDTH 471 0
DWIDTH 5 0
BBX 6 8 0 0
BITMAP
04E2E3
015060
000000
02AC50
1C3B50
6B6200
890700
3DB700
ENDCHAR
STARTCHAR igrave
ENCODING 236
SWIDTH 286 0
DWIDTH 3 0
BBX 3 8 0 0
BITMAP
0770
0680
0050
0B60
0C30
3C00
9600
8D00
ENDCHAR
STARTCHAR iacute
ENCODING 237
SWIDTH 286 0
DWIDTH 3 0
BBX 4 8 0 0
BITMAP
0075
02D2
0420
0B60
0C30
3C00
9600
8D00
ENDCHAR
STARTCHAR icircumflex
ENCODING 238
SWIDTH 286 0
DWIDTH 3 0
BBX 4 8 0 0
BITMAP
0043
07BA
3406
0B60
0C30
3C00
9600
8D00
ENDCHAR
STARTCHAR idieresis
ENCODING 239
SWIDTH 286 0
DWIDTH 3 0
BBX 5 8 0 0
BITMAP
5E2E30
150600
000000
0B6000
0C3000
3C0000
960000
8D0000
ENDCHAR
STARTCHAR eth
ENCODING 240
SWIDTH 524 0
DWIDTH 5 0
BBX 7 8 0 0
BITMAP
0001A710
0007E810
00049400
02AAD300
1D33E000
7A089000
972D1000
4DB30000
ENDCHAR
STARTCHAR ntilde
ENCODING 241
SWIDTH 561 0
DWIDTH 6 0
BBX 6 8 0 0
BITMAP
007D27
0065C3
000000
0B69E2
0CB4E1
2F57A0
890C40
C20BB0
ENDCHAR
STARTCHAR ograve
ENCODING 242
SWIDTH 514 0
DWIDTH 5 0
BBX 5 8 0 0
BITMAP
000D00
000D10
000320
03BA50
1E35B0
7A0890
971E30
4BB500
ENDCHAR
STARTCHAR oacute
ENCODING 243
SWIDTH 514 0
DWIDTH 5 0
BBX 5 8 0 0
BITMAP
0001B0
000890
001500
03BA50
1E35B0
7A0890
971E30
4BB500
ENDCHAR
STARTCHAR ocircumflex
ENCODING 244
SWIDTH 514 0
DWIDTH 5 0
BBX 6 8 0 0
BITMAP
000170
003AD2
006133
03BA50
1E35B0
7A0890
971E30
4BB500
ENDCHAR
STARTCHAR otilde
ENCODING 245
SWIDTH 514 0
DWIDTH 5 0
BBX 6 8 0 0
BITMAP
006D37
0064C4
000000
03BA50
1E35B0
7A0890
971E30
4BB500
ENDCHAR
STARTCHAR odieresis
ENCODING 246
SWIDTH 514 0
DWIDTH 5 0
BBX 6 8 0 0
BITMAP
00C78A
004233
000000
03BA50
1E35B0
7A0890
971E30
4BB500
ENDCHAR
STARTCHAR divide
ENCODING 247
SWIDTH 617 0
DWIDTH 6 0
BBX 6 6 0 0
BITMAP
002800
002700
1AAAA6
000100
006C00
000100
ENDCHAR
STARTCHAR oslash
ENCODING 248
SWIDTH 514 0
DWIDTH 5 0
BBX 6 7 0 -1
BITMAP
0001C2
03BC90
1E4AB0
7A78A0
9A5D30
5EB500
640000
ENDCHAR
STARTCHAR ugrave
ENCODING 249
SWIDTH 553 0
DWIDTH 6 0
BBX 6 8 0 0
BITMAP
000B30
000A40
000230
0B70A5
0C44E0
3D1D80
978C30
9C3AB0
ENDCHAR
STARTCHAR uacute
ENCODING 250
SWIDTH 553 0
DWIDTH 6 0
BBX 6 8 0 0
BITMAP
0000A1
0005C0
000500
0B70A5
0C44E0
3D1D80
978C30
9C3AB0
ENDCHAR
STARTCHAR ucircumflex
ENCODING 251
SWIDTH 553 0
DWIDTH 6 0
BBX 6 8 0 0
BITMAP
000061
001AC5
005224
0B70A5
0C44E0
3D1D80
978C30
9C3AB0
ENDCHAR
STARTCHAR udieresis
ENCODING 252
SWIDTH 553 0
DWIDTH 6 0
BBX 6 8 0 0
BITMAP
009A5D
003315
000000
0B70A5
0C44E0
3D1D80
978C30
9C3AB0
ENDCHAR
STARTCHAR yacute
ENCODING 253
SWIDTH 549 0
DWIDTH 6 0
BBX 6 11 0 -3
BITMAP
0001A0
000980
001500
0A7096
0B53F2
3E1CB0
988C60
8D4D10
007700
04C000
281000
ENDCHAR
STARTCHAR thorn
ENCODING 254
SWIDTH 552 0
DWIDTH 6 0
BBX 7 11 -1 -3
BITMAP
00094000
000C3000
002D0000
006BBB00
00BA0F20
01E12E00
05A0A700
0ABB7000
1D000000
79000000
B3000000
ENDCHAR
STARTCHAR ydieresis
ENCODING 255
SWIDTH 549 0
DWIDTH 6 0
BBX 6 11 0 -3
BITMAP
00C69A
005133
000000
0A7096
0B53F2
3E1CB0
988C60
8D4D10
007700
04C000
281000
ENDCHAR
STARTCHAR Amacron
ENCODING 256
SWIDTH 615 0
DWIDTH 6 0
BBX 9 9 -1 0
BITMAP
00000CDC20
000006D600
000077C300
0004A3D000
000C188000
01ADCFD100
01C02E0000
09605B0000
8A003E7000
ENDCHAR
STARTCHAR amacron
ENCODING 257
SWIDTH 543 0
DWIDTH 5 0
BBX 6 7 0 0
BITMAP
00BDD4
000000
02BAC4
1D34D0
7A0A70
974E30
5D7AC0
ENDCHAR
STARTCHAR Abreve
ENCODING 258
SWIDTH 615 0
DWIDTH 6 0
BBX 9 10 -1 0
BITMAP
0000032230
000006D910
000006D600
000077C300
0004A3D000
000C188000
01ADCFD100
01C02E0000
09605B0000
8A003E7000
ENDCHAR
STARTCHAR abreve
ENCODING 259
SWIDTH 543 0
DWIDTH 5 0
BBX 6 8 0 0
BITMAP
005636
003CA1
000000
02BAC4
1D34D0
7A0A70
974E30
5D7AC0
ENDCHAR
STARTCHAR Aogonek
ENCODING 260
SWIDTH 615 0
DWIDTH 6 0
BBX 8 10 -1 -2
BITMAP
000006D6
000077C3
0004A3D0
000C1880
01ADCFD1
01C02E00
09605B00
8A003D50
00007300
0000C700
ENDCHAR
STARTCHAR aogonek
ENCODING 261
SWIDTH 541 0
DWIDTH 5 0
BBX 6 7 0 -2
BITMAP
02BAC4
1D24D0
790A70
A74E20
5D7AC0
001910
005C20
ENDCHAR
STARTCHAR Cacute
ENCODING 262
SWIDTH 533 0
DWIDTH 5 0
BBX 7 10 0 0
BITMAP
00000370
00000B40
001AB900
01D60D00
09908C00
1F209200
5C000000
7A000000
6C013000
1BAB3000
ENDCHAR
STARTCHAR cacute
ENCODING 263
SWIDTH 468 0
DWIDTH 5 0
BBX 6 8 0 0
BITMAP
000084
0002D2
000410
03BB50
1E3870
7A0510
980300
4DB600
ENDCHAR
STARTCHAR Ccircumflex
ENCODING 264
SWIDTH 533 0
DWIDTH 5 0
BBX 7 10 0 0
BITMAP
00001920
0002A890
001AB900
01D60D00
09908C00
1F209200
5C000000
7A000000
6C013000
1BAB3000
ENDCHAR
STARTCHAR ccircumflex
ENCODING 265
SWIDTH 468 0
DWIDTH 5 0
BBX 6 8 0 0
BITMAP
000170
003AD1
006142
03BB50
1E3870
7A0510
980300
4DB600
ENDCHAR
STARTCHAR Cdotaccent
ENCODING 266
SWIDTH 533 0
DWIDTH 5 0
BBX 6 10 0 0
BITMAP
000044
000098
001AB9
01D60D
09908C
1F2092
5C0000
7A0000
6C0130
1BAB30
ENDCHAR
STARTCHAR cdotaccent
ENCODING 267
SWIDTH 468 0
DWIDTH 5 0
BBX 5 8 0 0
BITMAP
000B80
000420
000000
03BB50
1E3870
7A0510
980300
4DB600
ENDCHAR
STARTCHAR Ccaron
ENCODING 268
SWIDTH 533 0
DWIDTH 5 0
BBX 8 10 0 0
BITMAP
00016051
00008A50
001AB900
01D60D00
09908C00
1F209200
5C000000
7A000000
6C013000
1BAB3000
ENDCHAR
STARTCHAR ccaron
ENCODING 269
SWIDTH 468 0
DWIDTH 5 0
BBX 6 8 0 0
BITMAP
00391A
000DA3
000200
03BB50
1E3870
7A0510
980300
4DB600
ENDCHAR
STARTCHAR Dcaron
ENCODING 270
SWIDTH 630 0
DWIDTH 6 0
BBX 7 10 0 0
BITMAP
00043140
0002C720
09DBB500
05621D30
02F30A70
08A00B60
0E402E10
4D00B700
791A9000
4CB60000
ENDCHAR
STARTCHAR dcaron
ENCODING 271
SWIDTH 557 0
DWIDTH 6 0
BBX 9 8 0 0
BITMAP
0000095D20
00001E1C00
00006A3200
01AAD40000
0C42E00000
6B08A00000
883E600000
4D97D20000
ENDCHAR
STARTCHAR Dcroat
ENCODING 272
SWIDTH 630 0
DWIDTH 6 0
BBX 7 8 0 0
BITMAP
0ADBB400
05622D20
03F20B50
7FFB0C40
1E303E10
5C00C600
881B8000
5CB50000
ENDCHAR
STARTCHAR dcroat
ENCODING 273
SWIDTH 557 0
DWIDTH 6 0
BBX 7 8 0 0
BITMAP
00000950
0006BE60
00006A00
01AAD400
0C42E000
6B08A000
883E6000
4D97D200
ENDCHAR
STARTCHAR Emacron
ENCODING 274
SWIDTH 509 0
DWIDTH 5 0
BBX 7 9 0 0
BITMAP
002CDC10
005CA700
05E23C00
0B62E500
0B401000
07F80000
4E300000
89054000
3CA91000
ENDCHAR
STARTCHAR emacron
ENCODING 275
SWIDTH 471 0
DWIDTH 5 0
BBX 5 7 0 0
BITMAP
03DDC0
000000
02AC40
1D3970
6D9A10
891300
3DB800
ENDCHAR
STARTCHAR Ebreve
ENCODING 276
SWIDTH 509 0
DWIDTH 5 0
BBX 7 10 0 0
BITMAP
00041320
0008C800
005CA700
05E23C00
0B62E500
0B401000
07F80000
4E300000
89054000
3CA91000
ENDCHAR
STARTCHAR ebreve
ENCODING 277
SWIDTH 471 0
DWIDTH 5 0
BBX 6 8 0 0
BITMAP
00B181
008C60
000000
02AC40
1D3970
6D9A10
891300
3DB800
ENDCHAR
STARTCHAR Edotaccent
ENCODING 278
SWIDTH 509 0
DWIDTH 5 0
BBX 6 10 0 0
BITMAP
000260
0006B0
005CA7
05E23C
0B62E5
0B4010
07F800
4E3000
890540
3CA910
ENDCHAR
STARTCHAR edotaccent
ENCODING 279
SWIDTH 471 0
DWIDTH 5 0
BBX 5 8 0 0
BITMAP
002E20
000600
000000
02AC40
1D3970
6D9A10
891300
3DB800
ENDCHAR
STARTCHAR Eogonek
ENCODING 280
SWIDTH 509 0
DWIDTH 5 0
BBX 6 10 0 -2
BITMAP
005CA7
05E23C
0B62E5
0B4010
07F800
3E3000
890530
3CA600
063000
0B7000
ENDCHAR
STARTCHAR eogonek
ENCODING 281
SWIDTH 471 0
DWIDTH 5 0
BBX 5 7 0 -2
BITMAP
02AC50
1D3870
6D9A10
891300
3DB700
055000
0A9000
ENDCHAR
STARTCHAR Ecaron
ENCODING 282
SWIDTH 509 0
DWIDTH 5 0
BBX 7 10 0 0
BITMAP
00061320
0005B600
005CA700
05E23C00
0B62E500
0B401000
07F80000
4E300000
89054000
3CA91000
ENDCHAR
STARTCHAR ecaron
ENCODING 283
SWIDTH 471 0
DWIDTH 5 0
BBX 6 8 0 0
BITMAP
008447
005C91
000200
02AC40
1D3970
6D9A10
891300
3DB800
ENDCHAR
STARTCHAR Gcircumflex
ENCODING 284
SWIDTH 598 0
DWIDTH 6 0
BBX 7 10 0 0
BITMAP
00001920
0003A880
001AB900
01C60C10
09A05E00
1F30D600
5D001100
7A08FB00
6B049000
1BA91000
ENDCHAR
STARTCHAR gcircumflex
ENCODING 285
SWIDTH 526 0
DWIDTH 5 0
BBX 6 11 0 -3
BITMAP
000170
003AD2
006142
02A993
1D23E1
7A09A0
973F50
4D9E10
006800
03C100
282000
ENDCHAR
STARTCHAR Gbreve
ENCODING 286
SWIDTH 598 0
DWIDTH 6 0
BBX 7 10 0 0
BITMAP
00005040
0000BC60
001AB900
01C60C10
09A05E00
1F30D600
5D001100
7A08FB00
6B049000
1BA91000
ENDCHAR
STARTCHAR gbreve
ENCODING 287
SWIDTH 526 0
DWIDTH 5 0
BBX 6 11 0 -3
BITMAP
005727
003CA1
000000
02A993
1D23E1
7A09A0
973F50
4D9E10
006800
03C100
282000
ENDCHAR
STARTCHAR Gdotaccent
ENCODING 288
SWIDTH 598 0
DWIDTH 6 0
BBX 7 10 0 0
BITMAP
00004400
00009700
001AB900
01C60C10
09A05E00
1F30D600
5D001100
7A08FB00
6B049000
1BA91000
ENDCHAR
STARTCHAR gdotaccent
ENCODING 289
SWIDTH 526 0
DWIDTH 5 0
BBX 6 11 0 -3
BITMAP
000A90
000420
000000
02A993
1D23E1
7A09A0
973F50
4D9E10
006800
03C100
282000
ENDCHAR
STARTCHAR Gcommaaccent
ENCODING 290
SWIDTH 598 0
DWIDTH 6 0
BBX 7 11 0 -3
BITMAP
001AB900
01C60C10
09A05E00
1F30D600
5D001100
7A08FB00
6B049000
1BA91000
05100000
0B400000
19000000
ENDCHAR
STARTCHAR gcommaaccent
ENCODING 291
SWIDTH 526 0
DWIDTH 5 0
BBX 6 11 0 -3
BITMAP
000380
000A60
000100
02A993
1D23E1
7A09A0
973F50
4D9E10
006800
03C100
282000
ENDCHAR
STARTCHAR Hcircumflex
ENCODING 292
SWIDTH 668 0
DWIDTH 7 0
BBX 8 10 -1 0
BITMAP
00000570
000088C1
00CD300D
000D403E
001F206A
006D00A6
00D712B0
01E10860
08800D20
3B000C90
ENDCHAR
STARTCHAR hcircumflex
ENCODING 293
SWIDTH 555 0
DWIDTH 6 0
BBX 6 10 0 0
BITMAP
005E10
097940
00C200
01F100
04D000
088AD1
0DA4E1
4F4890
990D30
D20CB0
ENDCHAR
STARTCHAR Hbar
ENCODING 294
SWIDTH 668 0
DWIDTH 7 0
BBX 9 8 -1 0
BITMAP
00CD300D00
000C403E00
02BFCCEE70
004E00A500
00CB67E400
01E3068000
07A00C3000
3B100CA000
ENDCHAR
STARTCHAR hbar
ENCODING 295
SWIDTH 555 0
DWIDTH 6 0
BBX 6 8 0 0
BITMAP
00A400
07EB40
02E000
069AD1
0BA4E1
2F4890
890D30
C20CB0
ENDCHAR
STARTCHAR Itilde
ENCODING 296
SWIDTH 327 0
DWIDTH 3 0
BBX 6 10 0 0
BITMAP
03D661
062C60
0AD400
00A600
00D300
02E000
07A000
0C4000
5C0000
C20000
ENDCHAR
STARTCHAR itilde
ENCODING 297
SWIDTH 286 0
DWIDTH 3 0
BBX 5 8 0 0
BITMAP
1BA340
52A900
000000
0B6000
0C3000
3C0000
960000
8D0000
ENDCHAR
STARTCHAR Imacron
ENCODING 298
SWIDTH 327 0
DWIDTH 3 0
BBX 5 9 0 0
BITMAP
06DD90
0AD400
00A600
00D300
02E000
07A000
0C4000
5C0000
C20000
ENDCHAR
STARTCHAR imacron
ENCODING 299
SWIDTH 286 0
DWIDTH 3 0
BBX 4 7 0 0
BITMAP
5DDA
0000
0B60
0C30
3C00
9600
8D00
ENDCHAR
STARTCHAR Ibreve
ENCODING 300
SWIDTH 327 0
DWIDTH 3 0
BBX 5 10 0 0
BITMAP
005040
01CC50
0AD400
00A600
00D300
02E000
07A000
0C4000
5C0000
C20000
ENDCHAR
STARTCHAR ibreve
ENCODING 301
SWIDTH 286 0
DWIDTH 3 0
BBX 5 8 0 0
BITMAP
0B1810
08C500
000000
0B6000
0C3000
3C0000
960000
8D0000
ENDCHAR
STARTCHAR Iogonek
ENCODING 302
SWIDTH 327 0
DWIDTH 3 0
BBX 6 10 -2 -2
BITMAP
000AD5
0000B6
0000E3
0003D0
000880
001E20
008800
048000
2B0000
4C3000
ENDCHAR
STARTCHAR iogonek
ENCODING 303
SWIDTH 297 0
DWIDTH 3 0
BBX 5 11 -1 -3
BITMAP
001E30
000600
000000
00A800
00A500
01E100
069000
09B100
058000
1C0000
2C4000
ENDCHAR
STARTCHAR Idotaccent
ENCODING 304
SWIDTH 327 0
DWIDTH 3 0
BBX 4 10 0 0
BITMAP
0053
00B6
0AD4
00A6
00D3
02E0
07A0
0C40
5C00
C200
ENDCHAR
STARTCHAR dotlessi
ENCODING 305
SWIDTH 286 0
DWIDTH 3 0
BBX 3 5 0 0
BITMAP
0B60
0C30
3C00
9600
8D00
ENDCHAR
STARTCHAR IJ
ENCODING 306
SWIDTH 720 0
DWIDTH 7 0
BBX 8 11 0 -3
BITMAP
0AD47DD5
00A7B2B7
00D300E4
02E003E1
07A008A0
0C400D50
5C004E00
C200B700
0005D000
002D3000
03B40000
ENDCHAR
STARTCHAR ij
ENCODING 307
SWIDTH 567 0
DWIDTH 6 0
BBX 6 11 0 -3
BITMAP
02E28B
006033
000000
0B61E3
0C30E2
3C02E0
9606A0
8D0B40
002D00
00A400
086000
ENDCHAR
STARTCHAR Jcircumflex
ENCODING 308
SWIDTH 393 0
DWIDTH 4 0
BBX 8 13 -2 -3
BITMAP
00000560
000088C1
0019DD20
005A1F20
00003E00
00007B00
0000C600
0003F100
0009A000
001E3000
00990000
05D10000
6B200000
ENDCHAR
STARTCHAR jcircumflex
ENCODING 309
SWIDTH 282 0
DWIDTH 3 0
BBX 6 11 -2 -3
BITMAP
000062
0019B7
004315
000C60
000C50
000E10
004C00
009700
01E100
087000
680000
ENDCHAR
STARTCHAR Kcommaaccent
ENCODING 310
SWIDTH 616 0
DWIDTH 6 0
BBX 8 11 -1 -3
BITMAP
02DD10B4
001F10C6
003D05C0
007A5B10
00CCA000
03E4E200
0A80AB00
4B102CB0
00330000
00880000
00910000
ENDCHAR
STARTCHAR kcommaaccent
ENCODING 311
SWIDTH 497 0
DWIDTH 5 0
BBX 5 11 0 -3
BITMAP
004200
00C400
01E000
0593D0
0A4A90
1ED400
88E300
C15E60
060000
0E1000
370000
ENDCHAR
STARTCHAR kgreenlandic
ENCODING 312
SWIDTH 497 0
DWIDTH 5 0
BBX 5 5 0 0
BITMAP
0B52E0
0C49A0
2FD400
8AD400
C24E70
ENDCHAR
STARTCHAR Lacute
ENCODING 313
SWIDTH 517 0
DWIDTH 5 0
BBX 7 10 -1 0
BITMAP
000000A0
00000780
0001AB40
000A7490
003E1B60
00898B00
00D40000
04D00000
0A534100
2ECAB800
ENDCHAR
STARTCHAR lacute
ENCODING 314
SWIDTH 279 0
DWIDTH 3 0
BBX 5 10 0 0
BITMAP
000640
002B20
00C000
02E000
069000
0B5000
1E0000
5A0000
A60000
8C1000
ENDCHAR
STARTCHAR Lcommaaccent
ENCODING 315
SWIDTH 517 0
DWIDTH 5 0
BBX 7 11 -1 -3
BITMAP
0001AB40
000A7490
003E1B60
00898B00
00D40000
04D00000
0A534100
2ECAB800
02500000
03C00000
07400000
ENDCHAR
STARTCHAR lcommaaccent
ENCODING 316
SWIDTH 279 0
DWIDTH 3 0
BBX 4 11 0 -3
BITMAP
0051
00E2
03C0
0870
0D20
4B00
8600
8C10
4200
9700
A100
ENDCHAR
STARTCHAR Lcaron
ENCODING 317
SWIDTH 517 0
DWIDTH 5 0
BBX 9 10 -1 0
BITMAP
0000000330
0000000870
0001AB4A10
000A749000
003E1B6000
00898B0000
00D4000000
04D0000000
0A53410000
2ECAB80000
ENDCHAR
STARTCHAR lcaron
ENCODING 318
SWIDTH 467 0
DWIDTH 5 0
BBX 6 8 0 0
BITMAP
00C286
01E193
04B050
096000
0D1000
4A0000
960000
8D1000
ENDCHAR
STARTCHAR Ldot
ENCODING 319
SWIDTH 668 0
DWIDTH 7 0
BBX 8 8 -1 0
BITMAP
0001AB40
000A7490
003E1B60
00898B00
00D4008B
04D00023
0A534100
2ECAB800
ENDCHAR
STARTCHAR ldot
ENCODING 320
SWIDTH 489 0
DWIDTH 5 0
BBX 5 8 0 0
BITMAP
00C200
01E100
04B000
096000
0D1AA0
4A0430
960000
8D1000
ENDCHAR
STARTCHAR Lslash
ENCODING 321
SWIDTH 517 0
DWIDTH 5 0
BBX 7 8 -1 0
BITMAP
0001AB40
000A7490
002E2C50
00897900
03ED4000
0AB00000
0A546100
2ECAB800
ENDCHAR
STARTCHAR lslash
ENCODING 322
SWIDTH 279 0
DWIDTH 3 0
BBX 5 9 0 0
BITMAP
023000
03FB30
01E000
05A000
0A5000
1E1000
5A0000
960000
8C1000
ENDCHAR
STARTCHAR Nacute
ENCODING 323
SWIDTH 708 0
DWIDTH 7 0
BBX 8 10 0 0
BITMAP
00000064
000002B2
002D30A7
00BE207A
067E2097
0C1E30D1
3B0C5580
77099B10
B404E800
A100B300
ENDCHAR
STARTCHAR nacute
ENCODING 324
SWIDTH 561 0
DWIDTH 6 0
BBX 6 8 0 0
BITMAP
0000A2
0004C1
000510
0B69E2
0CB4E1
2F57A0
890C40
C20BB0
ENDCHAR
STARTCHAR Ncommaaccent
ENCODING 325
SWIDTH 708 0
DWIDTH 7 0
BBX 8 11 0 -3
BITMAP
002D30A7
00BE207A
067E2097
0C1E30D1
3B0C5580
77099B10
B404E800
A100B300
00330000
00780000
00920000
ENDCHAR
STARTCHAR ncommaaccent
ENCODING 326
SWIDTH 561 0
DWIDTH 6 0
BBX 6 8 0 -3
BITMAP
0B69E2
0CB4E1
2F57A0
890C40
C20BB0
051000
0C3000
290000
ENDCHAR
STARTCHAR Ncaron
ENCODING 327
SWIDTH 708 0
DWIDTH 7 0
BBX 8 10 0 0
BITMAP
00002515
00000B83
002D30A7
00BE207A
067E2097
0C1E30D1
3B0C5580
77099B10
B404E800
A100B300
ENDCHAR
STARTCHAR ncaron
ENCODING 328
SWIDTH 561 0
DWIDTH 6 0
BBX 6 8 0 0
BITMAP
00391A
000DA3
000200
0B69E2
0CB4E1
2F57A0
890C40
C20BB0
ENDCHAR
STARTCHAR Eng
ENCODING 330
SWIDTH 698 0
DWIDTH 7 0
BBX 8 11 0 -3
BITMAP
003D20C6
01BF1099
077F0097
0D1F10D3
4A0E42D0
950B7770
C206DC10
B000E700
0006C000
002D2000
04B20000
ENDCHAR
STARTCHAR eng
ENCODING 331
SWIDTH 561 0
DWIDTH 6 0
BBX 6 8 0 -3
BITMAP
0B69E2
0CB3E2
2F52D0
890780
C20D20
006A00
02D200
1B3000
ENDCHAR
STARTCHAR Omacron
ENCODING 332
SWIDTH 655 0
DWIDTH 7 0
BBX 7 9 0 0
BITMAP
0003CDB0
0019BC20
00B80690
07C006A0
0E400980
3E001E30
5A007B00
4A03D200
0AAA2000
ENDCHAR
STARTCHAR omacron
ENCODING 333
SWIDTH 514 0
DWIDTH 5 0
BBX 6 7 0 0
BITMAP
00ADD5
000000
03BA50
1E35B0
7A0890
971E30
4BB500
ENDCHAR
STARTCHAR Obreve
ENCODING 334
SWIDTH 655 0
DWIDTH 7 0
BBX 8 10 0 0
BITMAP
00005031
00009C70
0019BC20
00B80690
07C006A0
0E400980
3E001E30
5A007B00
4A03D200
0AAA2000
ENDCHAR
STARTCHAR obreve
ENCODING 335
SWIDTH 514 0
DWIDTH 5 0
BBX 6 8 0 0
BITMAP
004727
002CA1
000000
03BA50
1E35B0
7A0890
971E30
4BB500
ENDCHAR
STARTCHAR Ohungarumlaut
ENCODING 336
SWIDTH 655 0
DWIDTH 7 0
BBX 8 10 0 0
BITMAP
00003663
0000A4A1
0019BC20
00B80690
07C006A0
0E400980
3E001E30
5A007B00
4A03D200
0AAA2000
ENDCHAR
STARTCHAR ohungarumlaut
ENCODING 337
SWIDTH 514 0
DWIDTH 5 0
BBX 6 8 0 0
BITMAP
000A19
005995
005140
03BA50
1E35B0
7A0890
971E30
4BB500
ENDCHAR
STARTCHAR OE
ENCODING 338
SWIDTH 900 0
DWIDTH 9 0
BBX 10 8 1 0
BITMAP
004BB9BCA1
05D21F70B3
1E405C0AB0
7B005A0100
B6002EC100
E300C80000
C209F02700
4BB8ABB400
ENDCHAR
STARTCHAR oe
ENCODING 339
SWIDTH 777 0
DWIDTH 8 0
BBX 8 5 0 0
BITMAP
01A989A8
0C61F65B
4D05F8C3
6A0CC121
1BA7BBA1
ENDCHAR
STARTCHAR Racute
ENCODING 340
SWIDTH 623 0
DWIDTH 6 0
BBX 8 10 -1 0
BITMAP
00000190
00000970
005CCB60
007820D2
001E31E2
005C1A90
00ADD700
01E4E200
08909900
2C101D90
ENDCHAR
STARTCHAR racute
ENCODING 341
SWIDTH 407 0
DWIDTH 4 0
BBX 5 8 0 0
BITMAP
000570
001C40
003300
0D5C60
0C9420
2F3000
7A0000
B30000
ENDCHAR
STARTCHAR Rcommaaccent
ENCODING 342
SWIDTH 623 0
DWIDTH 6 0
BBX 8 11 -1 -3
BITMAP
005CCB60
007820D2
001E31E2
005C1A90
00ADD700
01E4E200
08909900
2C101D90
00420000
00A60000
00A10000
ENDCHAR
STARTCHAR rcommaaccent
ENCODING 343
SWIDTH 407 0
DWIDTH 4 0
BBX 6 8 -1 -3
BITMAP
00D5C6
00D942
02F300
07A000
0B3000
150000
2E0000
550000
ENDCHAR
STARTCHAR Rcaron
ENCODING 344
SWIDTH 623 0
DWIDTH 6 0
BBX 8 10 -1 0
BITMAP
00006232
00005B60
005CCB60
007820D2
001E31E2
005C1A90
00ADD700
01E4E200
08909900
2C101D90
ENDCHAR
STARTCHAR rcaron
ENCODING 345
SWIDTH 407 0
DWIDTH 4 0
BBX 6 8 0 0
BITMAP
00A265
008B70
001100
0D5C60
0C9420
2F3000
7A0000
B30000
ENDCHAR
STARTCHAR Sacute
ENCODING 346
SWIDTH 474 0
DWIDTH 5 0
BBX 6 10 0 0
BITMAP
000019
000096
009BB1
079076
0C41C5
0C7490
06E100
11B800
A46800
6CA100
ENDCHAR
STARTCHAR sacute
ENCODING 347
SWIDTH 423 0
DWIDTH 4 0
BBX 5 8 0 0
BITMAP
000480
000B50
003300
07AC10
0F1810
0AA000
51E200
AA9000
ENDCHAR
STARTCHAR Scircumflex
ENCODING 348
SWIDTH 474 0
DWIDTH 5 0
BBX 6 10 0 0
BITMAP
000074
001A7B
009BB1
079076
0C41C5
0C7490
06E100
11B800
A46800
6CA100
ENDCHAR
STARTCHAR scircumflex
ENCODING 349
SWIDTH 423 0
DWIDTH 4 0
BBX 5 8 0 0
BITMAP
000430
007BA0
034060
07AC10
0F1810
0AA000
51E200
AA9000
ENDCHAR
STARTCHAR Scedilla
ENCODING 350
SWIDTH 474 0
DWIDTH 5 0
BBX 6 10 0 -2
BITMAP
009BB1
089077
0D42D4
0B8260
03E300
528900
A79600
2C5000
1C2000
380000
ENDCHAR
STARTCHAR scedilla
ENCODING 351
SWIDTH 423 0
DWIDTH 4 0
BBX 5 7 0 -2
BITMAP
07AC10
0F1810
0AA000
82E200
7AA000
0B0000
980000
ENDCHAR
STARTCHAR Scaron
ENCODING 352
SWIDTH 474 0
DWIDTH 5 0
BBX 7 10 0 0
BITMAP
00061320
0005B600
009BB100
07907600
0C41C500
0C749000
06E10000
11B80000
A4680000
6CA10000
ENDCHAR
STARTCHAR scaron
ENCODING 353
SWIDTH 423 0
DWIDTH 4 0
BBX 6 8 0 0
BITMAP
008347
006C91
001200
07AC10
0F1810
0AA000
51E200
AA9000
ENDCHAR
STARTCHAR Tcommaaccent
ENCODING 354
SWIDTH 471 0
DWIDTH 5 0
BBX 7 11 0 -3
BITMAP
1CE92240
4C0DCB10
253F1000
007B0000
00C60000
01E10000
07900000
2B100000
06000000
1E100000
47000000
ENDCHAR
STARTCHAR tcommaaccent
ENCODING 355
SWIDTH 358 0
DWIDTH 4 0
BBX 4 9 0 -3
BITMAP
02D0
2EC7
0E10
4B00
7820
4D90
3300
7800
9200
ENDCHAR
STARTCHAR Tcaron
ENCODING 356
SWIDTH 471 0
DWIDTH 5 0
BBX 7 10 0 0
BITMAP
00043240
0002C710
1CE92240
4C0DCB10
253F1000
007B0000
00C60000
01E10000
07900000
2B100000
ENDCHAR
STARTCHAR tcaron
ENCODING 357
SWIDTH 497 0
DWIDTH 5 0
BBX 6 8 0 0
BITMAP
00001D
00332A
00C541
09EA20
087000
0D2000
1E0200
0CC300
ENDCHAR
STARTCHAR Tbar
ENCODING 358
SWIDTH 471 0
DWIDTH 5 0
BBX 7 8 0 0
BITMAP
1CE92240
4C0DCB10
252F1000
006C0000
2BED2000
00E20000
06A00000
2B100000
ENDCHAR
STARTCHAR tbar
ENCODING 359
SWIDTH 358 0
DWIDTH 4 0
BBX 4 7 0 0
BITMAP
0050
03D0
2DC7
0D30
7EA5
6910
5E90
ENDCHAR
STARTCHAR Utilde
ENCODING 360
SWIDTH 624 0
DWIDTH 6 0
BBX 7 10 0 0
BITMAP
0006D270
00075C30
01D402C0
00E30A80
05C02F20
0B609C00
2E12F700
790AD300
B574E100
8D50CB00
ENDCHAR
STARTCHAR utilde
ENCODING 361
SWIDTH 553 0
DWIDTH 6 0
BBX 6 8 0 0
BITMAP
003D67
0062C6
000000
0B70A5
0C44E0
3D1D80
978C30
9C3AB0
ENDCHAR
STARTCHAR Umacron
ENCODING 362
SWIDTH 624 0
DWIDTH 6 0
BBX 7 9 0 0
BITMAP
000ADD50
01D402C0
00E30A80
05C02F20
0B609C00
2E12F700
790AD300
B574E100
8D50CB00
ENDCHAR
STARTCHAR umacron
ENCODING 363
SWIDTH 553 0
DWIDTH 6 0
BBX 6 7 0 0
BITMAP
007DD8
000000
0B70A5
0C44E0
3D1D80
978C30
9C3AB0
ENDCHAR
STARTCHAR Ubreve
ENCODING 364
SWIDTH 624 0
DWIDTH 6 0
BBX 7 10 0 0
BITMAP
00023130
0003DA20
01D402C0
00E30A80
05C02F20
0B609C00
2E12F700
790AD300
B574E100
8D50CB00
ENDCHAR
STARTCHAR ubreve
ENCODING 365
SWIDTH 553 0
DWIDTH 6 0
BBX 6 8 0 0
BITMAP
002A18
001BB3
000000
0B70A5
0C44E0
3D1D80
978C30
9C3AB0
ENDCHAR
STARTCHAR Uring
ENCODING 366
SWIDTH 624 0
DWIDTH 6 0
BBX 7 10 0 0
BITMAP
00008810
00058A30
01D445C0
00E30A80
05C02F20
0B609C00
2E12F700
790AD300
B574E100
8D50CB00
ENDCHAR
STARTCHAR uring
ENCODING 367
SWIDTH 553 0
DWIDTH 6 0
BBX 6 8 0 0
BITMAP
0009A4
002B66
000871
0B70A5
0C44E0
3D1D80
978C30
9C3AB0
ENDCHAR
STARTCHAR Uhungarumlaut
ENCODING 368
SWIDTH 624 0
DWIDTH 6 0
BBX 7 10 0 0
BITMAP
00009190
00057840
01D402C0
00E30A80
05C02F20
0B609C00
2E12F700
790AD300
B574E100
8D50CB00
ENDCHAR
STARTCHAR uhungarumlaut
ENCODING 369
SWIDTH 553 0
DWIDTH 6 0
BBX 6 8 0 0
BITMAP
00072A
002B69
004150
0B70A5
0C44E0
3D1D80
978C30
9C3AB0
ENDCHAR
STARTCHAR Uogonek
ENCODING 370
SWIDTH 684 0
DWIDTH 7 0
BBX 8 10 0 -2
BITMAP
00A800C2
00A705C0
01E20D70
06A05F20
0D40DC00
3D07B800
7A38A600
4E807C20
00009100
0002C400
ENDCHAR
STARTCHAR uogonek
ENCODING 371
SWIDTH 553 0
DWIDTH 6 0
BBX 6 7 0 -2
BITMAP
0B70A5
0C44E0
3D1D80
978C30
9C3B90
002900
005C20
ENDCHAR
STARTCHAR Wcircumflex
ENCODING 372
SWIDTH 941 0
DWIDTH 9 0
BBX 10 10 0 0
BITMAP
0000007400
00001A7C00
1CE500007B
038901505E
01E32D904D
07B1CE107A
0D49BA00B4
2D499604C0
4BB1A52C20
1D305CA200
ENDCHAR
STARTCHAR wcircumflex
ENCODING 373
SWIDTH 750 0
DWIDTH 8 0
BBX 8 8 0 0
BITMAP
00001600
0004AD00
00160510
0C6080D3
0B46B0A4
1D2E50C1
799D2660
8B19C700
ENDCHAR
STARTCHAR Ycircumflex
ENCODING 374
SWIDTH 580 0
DWIDTH 6 0
BBX 7 13 0 -3
BITMAP
00004700
00088C20
01E403B0
00E20A80
05C03F20
0B50AC00
2E03F700
880AE200
C578B000
9D5B5000
004C0000
02D20000
3B300000
ENDCHAR
STARTCHAR ycircumflex
ENCODING 375
SWIDTH 549 0
DWIDTH 6 0
BBX 6 11 0 -3
BITMAP
000170
003AD2
006142
0A7096
0B53F2
3E1CB0
988C60
8D4D10
007700
04C000
281000
ENDCHAR
STARTCHAR Ydieresis
ENCODING 376
SWIDTH 580 0
DWIDTH 6 0
BBX 7 12 0 -3
BITMAP
000D5A90
01E916E0
00E20A80
05C03F20
0B50AC00
2E03F700
880AE200
C578B000
9D5B5000
004C0000
02D20000
3B300000
ENDCHAR
STARTCHAR Zacute
ENCODING 377
SWIDTH 501 0
DWIDTH 5 0
BBX 7 10 -1 0
BITMAP
00000550
00002B20
008119B0
008FDCA0
00013C10
0002D300
002D4000
01D60000
0A900000
1E9CE700
ENDCHAR
STARTCHAR zacute
ENCODING 378
SWIDTH 430 0
DWIDTH 4 0
BBX 5 8 0 0
BITMAP
000290
000A70
002400
09AB70
006D20
07C100
6B2000
CBB700
ENDCHAR
STARTCHAR Zdotaccent
ENCODING 379
SWIDTH 501 0
DWIDTH 5 0
BBX 7 10 -1 0
BITMAP
00005300
0000B500
008119B0
008FDCA0
00013C10
0002D300
002D4000
01D60000
0A900000
1E9CE700
ENDCHAR
STARTCHAR zdotaccent
ENCODING 380
SWIDTH 430 0
DWIDTH 4 0
BBX 5 8 0 0
BITMAP
006C00
002400
000000
09AB70
006D20
07C100
6B2000
CBB700
ENDCHAR
STARTCHAR Zcaron
ENCODING 381
SWIDTH 501 0
DWIDTH 5 0
BBX 7 10 -1 0
BITMAP
00026050
0000A930
008119B0
008FDCA0
00013C10
0002D300
002D4000
01D60000
0A900000
1E9CE700
ENDCHAR
STARTCHAR zcaron
ENCODING 382
SWIDTH 430 0
DWIDTH 4 0
BBX 6 8 0 0
BITMAP
00B184
00AB70
001100
09AB70
006D20
07C100
6B2000
CBB700
ENDCHAR
STARTCHAR florin
ENCODING 402
SWIDTH 466 0
DWIDTH 5 0
BBX 8 11 -2 -3
BITMAP
000003A5
00001D1A
0000788A
0000D321
0008FD40
001BA200
000B5000
001E1000
005B0000
51B50000
9B900000
ENDCHAR
STARTCHAR AEacute
ENCODING 508
SWIDTH 878 0
DWIDTH 9 0
BBX 11 10 -1 0
BITMAP
00000000A000
000000078000
000007DCDA40
000079AB1770
0003C1F25D20
000C31E00100
019EDEFD4000
02D107C10000
0A600D509000
6A0006CC7000
ENDCHAR
STARTCHAR aeacute
ENCODING 509
SWIDTH 770 0
DWIDTH 8 0
BBX 8 8 0 0
BITMAP
00001A00
00009800
00015000
02BACBC4
1D34E1B7
790ABAB1
974D9130
5D83CB80
ENDCHAR
STARTCHAR Scommaaccent
ENCODING 536
SWIDTH 474 0
DWIDTH 5 0
BBX 6 11 0 -3
BITMAP
009BB1
079076
0C41C5
0C7490
06E100
11B800
A46800
6CA100
060000
0E2000
380000
ENDCHAR
STARTCHAR scommaaccent
ENCODING 537
SWIDTH 423 0
DWIDTH 4 0
BBX 5 8 0 -3
BITMAP
07AC10
0F1810
0AA000
51E200
AA9000
250000
4B0000
730000
ENDCHAR
STARTCHAR dotlessj
ENCODING 567
SWIDTH 277 0
DWIDTH 3 0
BBX 5 8 -2 -3
BITMAP
000D50
000C40
001F10
004C00
009600
01E100
096000
670000
ENDCHAR
STARTCHAR circumflex
ENCODING 710
SWIDTH 354 0
DWIDTH 4 0
BBX 4 2 0 6
BITMAP
04E2
8876
ENDCHAR
STARTCHAR caron
ENCODING 711
SWIDTH 381 0
DWIDTH 4 0
BBX 4 2 0 6
BITMAP
5649
2C70
ENDCHAR
STARTCHAR breve
ENCODING 728
SWIDTH 344 0
DWIDTH 3 0
BBX 4 2 0 6
BITMAP
6535
4D90
ENDCHAR
STARTCHAR dotaccent
ENCODING 729
SWIDTH 217 0
DWIDTH 2 0
BBX 3 2 0 6
BITMAP
3E10
1500
ENDCHAR
STARTCHAR ring
ENCODING 730
SWIDTH 402 0
DWIDTH 4 0
BBX 3 3 1 5
BITMAP
39B0
A4D0
4840
ENDCHAR
STARTCHAR ogonek
ENCODING 731
SWIDTH 311 0
DWIDTH 3 0
BBX 3 4 0 -3
BITMAP
0010
0650
5900
6B10
ENDCHAR
STARTCHAR tilde
ENCODING 732
SWIDTH 397 0
DWIDTH 4 0
BBX 5 2 0 6
BITMAP
1BB250
42AA00
ENDCHAR
STARTCHAR hungarumlaut
ENCODING 733
SWIDTH 392 0
DWIDTH 4 0
BBX 4 3 0 5
BITMAP
0213
0B3C
6693
ENDCHAR
STARTCHAR pi
ENCODING 960
SWIDTH 640 0
DWIDTH 6 0
BBX 8 5 -1 0
BITMAP
02BEEFF5
001B0D20
00764C00
03D17800
1D506D30
ENDCHAR
STARTCHAR uni1E02
ENCODING 7682
SWIDTH 551 0
DWIDTH 6 0
BBX 6 10 0 0
BITMAP
000260
0004C0
07CBB5
18812E
05E14D
0C73D5
3FBE60
6904C0
860890
3BA910
ENDCHAR
STARTCHAR uni1E03
ENCODING 7683
SWIDTH 525 0
DWIDTH 5 0
BBX 6 8 0 0
BITMAP
00D0C6
03D051
078000
0C9C80
2F54D0
6B07B0
951D40
4BB500
ENDCHAR
STARTCHAR uni1E0A
ENCODING 7690
SWIDTH 630 0
DWIDTH 6 0
BBX 7 10 0 0
BITMAP
00017100
0002D200
09DBB500
05621D30
02F30A70
08A00B60
0E402E10
4D00B700
791A9000
4CB60000
ENDCHAR
STARTCHAR uni1E0B
ENCODING 7691
SWIDTH 557 0
DWIDTH 6 0
BBX 7 8 0 0
BITMAP
01E40950
00611E10
00006A00
01AAD400
0C42E000
6B08A000
883E6000
4D97D200
ENDCHAR
STARTCHAR uni1E1E
ENCODING 7710
SWIDTH 518 0
DWIDTH 5 0
BBX 7 10 0 0
BITMAP
00006100
0001D300
1CD82420
6A1EBB00
236B0000
00B70000
06FEB000
07C00000
0C500000
78000000
ENDCHAR
STARTCHAR uni1E1F
ENCODING 7711
SWIDTH 393 0
DWIDTH 4 0
BBX 7 11 -1 -1
BITMAP
0001E400
0000C910
00078A50
000D2910
002D0000
02BFD200
01C40000
01E10000
05B00000
0B500000
1C000000
ENDCHAR
STARTCHAR uni1E40
ENCODING 7744
SWIDTH 931 0
DWIDTH 9 0
BBX 11 10 -1 0
BITMAP
000000026000
00000004C000
00002C904D40
0001BB62BE10
00094E1A7B00
003A5C499600
00A388A2E200
04A0A992E000
0C20BE24C000
A6009702E900
ENDCHAR
STARTCHAR uni1E41
ENCODING 7745
SWIDTH 814 0
DWIDTH 8 0
BBX 8 8 0 0
BITMAP
00008A00
00003300
00000000
0B69D2D9
0CB4C989
2F55E2D2
890C54C0
C21C03E5
ENDCHAR
STARTCHAR uni1E56
ENCODING 7766
SWIDTH 553 0
DWIDTH 6 0
BBX 8 10 -1 0
BITMAP
00000530
00000B50
006CBA60
00A710E2
001E21F1
005C1B80
00BDB600
02E10000
08800000
3B000000
ENDCHAR
STARTCHAR uni1E57
ENCODING 7767
SWIDTH 550 0
DWIDTH 6 0
BBX 7 11 -1 -3
BITMAP
0001E300
00006000
00000000
01E6BB00
00E90F10
02E12E00
06A0A700
0ABB7000
0E000000
5A000000
94000000
ENDCHAR
STARTCHAR uni1E60
ENCODING 7776
SWIDTH 474 0
DWIDTH 5 0
BBX 6 10 0 0
BITMAP
000260
0006B0
009BB1
079076
0C41C5
0C7490
06E100
11B800
A46800
6CA100
ENDCHAR
STARTCHAR uni1E61
ENCODING 7777
SWIDTH 423 0
DWIDTH 4 0
BBX 5 8 0 0
BITMAP
003E20
000600
000000
07AC10
0F1810
0AA000
51E200
AA9000
ENDCHAR
STARTCHAR uni1E6A
ENCODING 7786
SWIDTH 430 0
DWIDTH 4 0
BBX 6 10 0 0
BITMAP
000260
0005B0
2DD716
882FC9
426C00
00B700
01F200
05C000
0B5000
690000
ENDCHAR
STARTCHAR uni1E6B
ENCODING 7787
SWIDTH 358 0
DWIDTH 4 0
BBX 5 8 0 0
BITMAP
004E00
005600
00E300
0BD910
0B5000
0E1000
3C1100
1DB100
ENDCHAR
STARTCHAR Wgrave
ENCODING 7808
SWIDTH 941 0
DWIDTH 9 0
BBX 10 10 0 0
BITMAP
0000032000
000006A000
1CE500007B
038901505E
01E32D904D
07B1CE107A
0D49BA00B4
2D499604C0
4BB1A52C20
1D305CA200
ENDCHAR
STARTCHAR wgrave
ENCODING 7809
SWIDTH 750 0
DWIDTH 8 0
BBX 8 8 0 0
BITMAP
0002C000
0001D000
00004000
0C6080D3
0B46B0A4
1D2E50C1
799D2660
8B19C700
ENDCHAR
STARTCHAR Wacute
ENCODING 7810
SWIDTH 941 0
DWIDTH 9 0
BBX 10 10 0 0
BITMAP
0000001900
0000008700
1CE500007B
038901505E
01E32D904D
07B1CE107A
0D49BA00B4
2D499604C0
4BB1A52C20
1D305CA200
ENDCHAR
STARTCHAR wacute
ENCODING 7811
SWIDTH 750 0
DWIDTH 8 0
BBX 8 8 0 0
BITMAP
00003900
0000A600
00024000
0C6080D3
0B46B0A4
1D2E50C1
799D2660
8B19C700
ENDCHAR
STARTCHAR Wdieresis
ENCODING 7812
SWIDTH 941 0
DWIDTH 9 0
BBX 10 10 0 0
BITMAP
0000170620
00002D1D40
1CE500007B
038901505E
01E32D904D
07B1CE107A
0D49BA00B4
2D499604C0
4BB1A52C20
1D305CA200
ENDCHAR
STARTCHAR wdieresis
ENCODING 7813
SWIDTH 750 0
DWIDTH 8 0
BBX 8 8 0 0
BITMAP
000E4B80
00051420
00000000
0C6080D3
0B46B0A4
1D2E50C1
799D2660
8B19C700
ENDCHAR
STARTCHAR Ygrave
ENCODING 7922
SWIDTH 580 0
DWIDTH 6 0
BBX 7 13 0 -3
BITMAP
00024000
0003B200
01E403B0
00E20A80
05C03F20
0B50AC00
2E03F700
880AE200
C578B000
9D5B5000
004C0000
02D20000
3B300000
ENDCHAR
STARTCHAR ygrave
ENCODING 7923
SWIDTH 549 0
DWIDTH 6 0
BBX 6 11 0 -3
BITMAP
001D00
000D00
000320
0A7096
0B53F2
3E1CB0
988C60
8D4D10
007700
04C000
281000
ENDCHAR
STARTCHAR endash
ENCODING 8211
SWIDTH 751 0
DWIDTH 8 0
BBX 6 1 1 3
BITMAP
CDDDD9
ENDCHAR
STARTCHAR emdash
ENCODING 8212
SWIDTH 1066 0
DWIDTH 11 0
BBX 9 1 1 3
BITMAP
CDDDDDDDB0
ENDCHAR
STARTCHAR quoteleft
ENCODING 8216
SWIDTH 268 0
DWIDTH 3 0
BBX 2 3 1 6
BITMAP
05
68
78
ENDCHAR
STARTCHAR quoteright
ENCODING 8217
SWIDTH 268 0
DWIDTH 3 0
BBX 3 3 1 6
BITMAP
0600
0E20
3800
ENDCHAR
STARTCHAR quotesinglbase
ENCODING 8218
SWIDTH 268 0
DWIDTH 3 0
BBX 2 3 0 -1
BITMAP
34
5A
83
ENDCHAR
STARTCHAR quotedblleft
ENCODING 8220
SWIDTH 485 0
DWIDTH 5 0
BBX 5 3 1 6
BITMAP
041410
4A4900
788800
ENDCHAR
STARTCHAR quotedblright
ENCODING 8221
SWIDTH 480 0
DWIDTH 5 0
BBX 5 3 1 6
BITMAP
051610
0C4D30
383800
ENDCHAR
STARTCHAR quotedblbase
ENCODING 8222
SWIDTH 463 0
DWIDTH 5 0
BBX 4 3 0 -1
BITMAP
3433
5A6A
8393
ENDCHAR
STARTCHAR dagger
ENCODING 8224
SWIDTH 488 0
DWIDTH 5 0
BBX 5 8 0 0
BITMAP
002E10
016E30
07DD80
00C500
01E100
069000
0A2000
180000
ENDCHAR
STARTCHAR daggerdbl
ENCODING 8225
SWIDTH 488 0
DWIDTH 5 0
BBX 5 8 0 0
BITMAP
002E10
026E40
06DC60
00D500
28FA10
079100
0B2000
180000
ENDCHAR
STARTCHAR bullet
ENCODING 8226
SWIDTH 437 0
DWIDTH 4 0
BBX 3 3 1 2
BITMAP
8E40
CF60
2400
ENDCHAR
STARTCHAR ellipsis
ENCODING 8230
SWIDTH 810 0
DWIDTH 8 0
BBX 8 2 0 -1
BITMAP
AA0E64E2
44061160
ENDCHAR
STARTCHAR perthousand
ENCODING 8240
SWIDTH 1184 0
DWIDTH 12 0
BBX 12 8 0 0
BITMAP
06A903900000
1D1E0C200000
3B6A77000000
0993C0000000
000B48912970
00597986C4D1
01C1B4B5E1E0
08406A90AA50
ENDCHAR
STARTCHAR guilsinglleft
ENCODING 8249
SWIDTH 413 0
DWIDTH 4 0
BBX 4 4 0 1
BITMAP
0066
1B70
1D30
02C1
ENDCHAR
STARTCHAR guilsinglright
ENCODING 8250
SWIDTH 416 0
DWIDTH 4 0
BBX 4 4 0 1
BITMAP
0A50
01C3
04C3
4810
ENDCHAR
STARTCHAR fraction
ENCODING 8260
SWIDTH 580 0
DWIDTH 6 0
BBX 6 8 0 0
BITMAP
000066
0001C1
000950
003B00
00C200
068000
1C1000
840000
ENDCHAR
STARTCHAR Euro
ENCODING 8364
SWIDTH 622 0
DWIDTH 6 0
BBX 7 8 0 0
BITMAP
0002BB40
001D5490
008A0B80
01E30A10
0BEA4000
3DD91000
09903100
02CAA100
ENDCHAR
STARTCHAR trademark
ENCODING 8482
SWIDTH 1084 0
DWIDTH 11 0
BBX 9 5 1 3
BITMAP
1887363360
14C35E5BA0
0760AA9870
09456A9770
0334031230
ENDCHAR
STARTCHAR Omega
ENCODING 8486
SWIDTH 839 0
DWIDTH 8 0
BBX 8 8 0 0
BITMAP
00278500
04C318A0
1E3000C6
3F00008A
3F100099
0D5000D4
13C00691
6DD82EBC
ENDCHAR
STARTCHAR partialdiff
ENCODING 8706
SWIDTH 580 0
DWIDTH 6 0
BBX 6 8 0 0
BITMAP
004CA4
00643A
00697A
0BA1C9
5E10D5
A805D0
A61D50
4CC500
ENDCHAR
STARTCHAR Delta
ENCODING 8710
SWIDTH 663 0
DWIDTH 7 0
BBX 7 6 0 0
BITMAP
002D2000
00998000
0381E100
0A109700
47002D00
B9888D30
ENDCHAR
STARTCHAR product
ENCODING 8719
SWIDTH 667 0
DWIDTH 7 0
BBX 6 9 0 -1
BITMAP
078888
3D002E
4D002E
4D002E
4D002E
4D002E
4D002E
4D002E
39002A
ENDCHAR
STARTCHAR summation
ENCODING 8721
SWIDTH 677 0
DWIDTH 7 0
BBX 7 9 0 -1
BITMAP
07999910
0E710000
05F20000
00AC0000
001E3000
00690000
04B00000
2C100000
8EEEEA00
ENDCHAR
STARTCHAR minus
ENCODING 8722
SWIDTH 617 0
DWIDTH 6 0
BBX 6 1 0 3
BITMAP
3AAAA5
ENDCHAR
STARTCHAR radical
ENCODING 8730
SWIDTH 709 0
DWIDTH 7 0
BBX 8 10 0 0
BITMAP
00000004
0000003C
000000A7
000003D0
00000B50
1C603B00
58A0A300
02D39000
00EB1000
00A70000
ENDCHAR
STARTCHAR infinity
ENCODING 8734
SWIDTH 681 0
DWIDTH 7 0
BBX 7 4 0 2
BITMAP
01101100
2DB8DB30
655F3760
2BB4AA10
ENDCHAR
STARTCHAR integral
ENCODING 8747
SWIDTH 583 0
DWIDTH 6 0
BBX 8 12 -1 -2
BITMAP
00000052
0000099A
00003D3D
00009712
0000E200
0004C000
00088000
000D4000
002E0000
56880000
B3D20000
6B500000
ENDCHAR
STARTCHAR approxequal
ENCODING 8776
SWIDTH 671 0
DWIDTH 7 0
BBX 7 5 0 1
BITMAP
02960220
0A5E9B10
03436200
1BCC3A00
4219A200
ENDCHAR
STARTCHAR notequal
ENCODING 8800
SWIDTH 617 0
DWIDTH 6 0
BBX 6 7 0 0
BITMAP
000074
0014B0
1AAEA6
017811
2BD995
0A3000
040000
ENDCHAR
STARTCHAR lessequal
ENCODING 8804
SWIDTH 704 0
DWIDTH 7 0
BBX 6 7 0 0
BITMAP
000045
002A81
19A200
2B9100
004B60
000064
2ABBB5
ENDCHAR
STARTCHAR greaterequal
ENCODING 8805
SWIDTH 617 0
DWIDTH 6 0
BBX 6 7 0 0
BITMAP
281000
04B600
0007C4
0019A2
07B300
350000
3BBBB4
ENDCHAR
STARTCHAR lozenge
ENCODING 9674
SWIDTH 580 0
DWIDTH 6 0
BBX 6 8 0 0
BITMAP
005200
01CB00
093950
3901C1
6700A2
0C1390
049B10
00A600
ENDCHAR
STARTCHAR commaaccent
ENCODING 63171
SWIDTH 250 0
DWIDTH 3 0
BBX 2 3 0 -3
BITMAP
16
2D
42
ENDCHAR
STARTCHAR ff
ENCODING 64256
SWIDTH 773 0
DWIDTH 8 0
BBX 11 10 -1 -1
BITMAP
000089119800
00077A5A5D20
000D292E2900
002D005A0000
02AEDEEEB000
03C510E20000
01E103C00000
05B008800000
0B600D300000
1C004A000000
ENDCHAR
STARTCHAR fi
ENCODING 64257
SWIDTH 623 0
DWIDTH 6 0
BBX 8 10 -1 -2
BITMAP
00004991
0004A087
000D2082
007FBCC0
05D60590
00E20B30
03D02D00
08802E50
0D200000
15000000
ENDCHAR
STARTCHAR fl
ENCODING 64258
SWIDTH 637 0
DWIDTH 6 0
BBX 8 10 -1 -2
BITMAP
00006992
0006A068
001D1096
019FD1E1
02C505B0
00E10A50
04C00E10
09700D80
1E200000
15000000
ENDCHAR
STARTCHAR .notdef
ENCODING -1
SWIDTH 896 0
DWIDTH 9 0
BBX 10 10 0 -1
BITMAP
001BCCCCC9
006FFFFFF9
00BF6F88F5
01FD087FF1
05FF17FFB0
09FD18FF70
0ED4B18F30
3FDEFCED00
6FFFFFF700
0111111000
ENDCHAR
ENDFONT
